<svg id="Capa_1" data-name="Capa 1" xmlns="http://www.w3.org/2000/svg" viewBox="0 0 339.46 433.08"><defs><style>.cls-1{fill:#a02222;}.cls-2{fill:#ce2929;}.cls-3{fill:#ef6c5e;}</style></defs><title>build</title><polygon class="cls-1" points="339.46 60.89 339.46 171.59 134.66 276.76 18.42 215.87 18.42 105.17 339.46 60.89"/><polygon class="cls-2" points="134.66 166.05 134.66 276.76 18.42 215.87 18.42 105.17 134.66 166.05"/><polygon class="cls-3" points="339.46 60.89 134.66 166.05 18.42 105.17 223.22 0 339.46 60.89"/><ellipse class="cls-2" cx="123.59" cy="113.47" rx="27.68" ry="13.84"/><ellipse class="cls-2" cx="181.71" cy="83.03" rx="27.68" ry="13.84"/><ellipse class="cls-2" cx="239.83" cy="52.58" rx="27.68" ry="13.84"/><polygon class="cls-2" points="321.04 217.21 321.04 327.91 116.24 433.08 0 372.19 0 261.49 321.04 217.21"/><polygon class="cls-1" points="116.24 322.37 116.24 433.08 0 372.19 0 261.49 116.24 322.37"/><polygon class="cls-3" points="321.04 217.21 116.24 322.37 0 261.49 204.8 156.32 321.04 217.21"/><ellipse class="cls-1" cx="105.17" cy="269.79" rx="27.68" ry="13.84"/><ellipse class="cls-1" cx="163.29" cy="239.35" rx="27.68" ry="13.84"/><ellipse class="cls-1" cx="221.41" cy="208.9" rx="27.68" ry="13.84"/></svg>