<svg version="1.1" id="Capa_1" xmlns="http://www.w3.org/2000/svg" xmlns:xlink="http://www.w3.org/1999/xlink" x="0px" y="0px"
	 viewBox="0 0 511.997 511.997" style="enable-background:new 0 0 511.997 511.997;" xml:space="preserve">
<path style="fill:#F4F4EB;" d="M274.419,126.256c-9.462-2.259-19.733-2.356-29.383-2.761c-14.345-0.601-28.625-1.199-42.995-1.199
	c-24.803,0-49.561-0.703-74.337-0.788c-33.58-0.116-79.495,1.024-102.383,30.964c-4.911,6.425-6.561,14.912-8.781,22.482
	c-2.894,9.868-5.019,20.954-5.089,31.303c-0.095,14.016,1.86,27.804,2.013,41.777c0.115,10.511-0.704,21.062-0.794,31.57
	c-0.159,18.572-0.549,37.099,0.008,55.656c0.385,12.81-0.915,26.267,1.268,38.885c1.635,9.452,12.741,11.283,20.59,14.257
	c9.545,3.616,22.633,6.43,32.876,5.947c11.07-0.522,18.168-15.365,26.434-21.357c11.633-8.432,27.979-11.577,41.986-8.499
	c9.01,1.98,16.661,7.345,23.904,12.809c4.533,3.42,10.01,12.508,11.356,18.214c1.312,5.564-1.285,13.614,0.93,18.654
	c2.964,6.746,18.396,5.52,24.425,5.514c35.345-0.033,70.529,1.432,105.744,4.472c8.674,0.749,16.451,0.549,20.142-8.216
	c4.372-10.384,7.362-19.023,15.467-27.373c16.883-17.394,40.502-26.913,64.406-19.318c13.682,4.347,27.647,18.743,31.468,32.563
	c4.263-0.597,8.823-6.416,13.024-8.295c6.613-2.958,13.703-4.693,20.181-7.987c6.085-3.094,12.49-6.375,17.645-10.821
	c4.461-3.848,5.215-9.089,5.806-14.712c3.289-31.324,0.845-66.39-9.207-96.333c-2.792-8.319-7.424-21.524-15.036-26.531
	c-4.077-2.682-8.468-3.374-13.179-4.345c-5.93-1.223-11.646-3.059-17.521-4.527c-15.751-3.935-32.036-9.59-46.902-16.075
	c-15.346-6.694-27.967-13.829-37.661-28.018c-7.693-11.259-13.964-23.447-21.956-34.515c-5.622-7.784-16.864-14.504-25.422-18.636
	c-4.094-1.977-8.905-4.052-13.393-4.797C285.066,125.392,279.112,127.376,274.419,126.256z"/>
<path style="fill:#387BD2;" d="M256.996,146.451c-5.542-2.118-13.205-0.792-19.118-0.792c-7.216,0-14.377-0.227-21.572-0.405
	c-12.641-0.312-25.411-0.032-38.003,0.9c-21.926,1.622-43.789-0.496-65.755-0.495c-17.3,0.001-39.098,1.768-53.459,12.665
	C44.432,169.445,36.897,190.4,40.29,208.225c3.391,17.815,25.442,18.611,40.172,19.788c22.302,1.783,44.897,0.3,67.235,1.111
	c23.801,0.864,47.61-0.98,71.37-0.317c12.749,0.356,25.538,0.379,38.286,0.889c12.467,0.499,24.517-1.041,36.928-1.98
	c11.125-0.842,20.186-4.172,22.912-16.05c2.142-9.334-0.856-19.481-4.455-28.082c-4.788-11.444-13.758-25.047-24.05-31.822
	C281.961,147.334,269.202,141.426,256.996,146.451z"/>
<g>
	<path style="fill:#76746E;" d="M108.104,365.435c-1.467,0.824-4.563,0.425-6.538,1.603c-1.943,1.16-2.901,2.511-4.374,4.097
		c-3.592,3.868-8.278,6.247-11.968,10.023c-3.841,3.93-7.225,8.22-10.237,12.793c-5.312,8.066-6.941,15.649-7.289,24.992
		c-0.958,25.671,9.686,46.635,33.279,57.369c23.501,10.692,53.375,7.568,66.33-16.779c5.633-10.585,6.214-22.543,5.651-34.303
		c-0.537-11.214-1.746-22.766-5.855-33.272C159.904,373.545,127.121,354.751,108.104,365.435z"/>
	<path style="fill:#76746E;" d="M375.002,365.831c-7.626-0.619-16.988,4.672-23.275,8.387c-8.702,5.142-17.041,13.131-22.38,21.708
		c-8.063,12.953-9.571,29.669-4.635,43.954c6.148,17.795,21.856,32.381,40.178,37.075c8.515,2.182,20.025,3.266,28.805,2.049
		c5.879-0.815,12.32-3.846,17.748-6.169c5.141-2.2,9.469-4.192,12.276-9.197c9.824-17.519,14.501-42.428,8.915-61.892
		c-3.658-12.745-9.807-22.541-20.803-29.973C401.365,364.699,385.549,363.274,375.002,365.831z"/>
</g>
<g>
	<path style="fill:#8C8C86;" d="M486.275,378.502c-7.262,0.906-14.629,7.556-22.087,9.524c-6.823,1.801-14.191,2.299-19.976,6.692
		c-8.546,6.491-15.703,22.894-5.258,31.153c10.343,8.178,30.174,5.204,41.49,1.336c13.828-4.727,22.444-12.474,23.957-27.705
		C505.155,391.921,498.145,372.948,486.275,378.502z"/>
	<path style="fill:#8C8C86;" d="M71.277,393.55c-3.108,6.464-5.233,13.407-7.455,20.211c-1.162,3.558-1.042,4.843-5.199,5.543
		c-6.518,1.097-14.028,0.499-20.614,0.183c-6.057-0.291-13.299,0.53-18.969-2.159c-9.691-4.597-17.171-20.552-7.457-28.549
		c8.591-7.073,21.16-2.333,30.798-0.871C50.413,389.125,59.227,389.623,71.277,393.55z"/>
</g>
<g>
	<path style="fill:#BDBEB5;" d="M120.775,395.53c-24.412,1.216-32.523,45.602-7.513,51.576c20.833,4.976,39.49-18.335,31.359-37.696
		C141.629,402.285,131.108,393.941,120.775,395.53z"/>
	<path style="fill:#BDBEB5;" d="M382.183,395.577c-2.48,0.143-5.043,0.798-7.631,2.05c-15.493,7.501-23.454,36.702-7.481,47.798
		c19.536,13.571,43.155-11.996,37.331-31.667C401.254,403.122,392.437,394.983,382.183,395.577z"/>
</g>
<path style="fill:#E03D58;" d="M390.841,270.397c-6.461-1.765-16.035,0.789-16.728,8.622c-0.439,4.967,4.03,8.064,8.41,9.692
	c4.725,1.756,11.183,2.431,15.84,0.197c3.151-1.512,7.136-5.806,6.048-9.402C402.919,274.571,395.81,272.395,390.841,270.397z"/>
<g>
	<path style="fill:#BDBEB5;" d="M207.102,251.785c-4.225-1.473-11.984,0.091-15.937,2.267c-5.029,2.768-4.24,6.85,0.691,8.869
		c5.569,2.28,22.914,6.239,25.649-2.425C219.454,254.321,211.382,252.381,207.102,251.785z"/>
	<path style="fill:#BDBEB5;" d="M77.612,251.389c-4.474-1.112-29.672,2.128-21.151,10.691c5.284,5.31,26.292,6.944,29.775-0.793
		C88.284,256.74,80.794,250.865,77.612,251.389z"/>
</g>
<g>
	<path style="fill:#E03D58;" d="M13.462,343.259c0,6.846-0.29,13.604,0.015,20.408c0.19,4.254-0.274,9.988,1.961,13.861
		c1.781,3.085,4.539,3.623,7.926,4.637c2.306,0.69,9.577,4.03,11.897,2.614c4.571-2.791,1.312-22.236,0.587-26.472
		c-1.017-5.944-2.382-12.524-8.12-15.752C24.85,340.937,14.682,338.837,13.462,343.259z"/>
	<path style="fill:#E03D58;" d="M482.711,303.66c-7.805-0.938-17.818,6.756-20.999,13.366c-3.773,7.841-6.099,18.35-4.731,26.947
		c1.161,7.296,7.772,4.374,13.948,4.037c5.64-0.308,12.298-0.633,15.182-5.921C492.297,330.75,487.653,316.131,482.711,303.66z"/>
</g>
<path style="fill:#FCFBF1;" d="M458.16,371.374c0,7.057-1.18,16.66,9.07,14.665c10.983-2.137,18.988-15.562,20.445-25.768
	c0.387-2.713,1.202-8.987-0.202-11.469c-1.296-2.291-3.839-2.296-6.346-2.297c-5.848-0.003-12.238,0.221-18.128,0.801
	C454.08,348.186,458.139,363.104,458.16,371.374z"/>
<g>
	<path style="fill:#BDBEB5;" d="M107.708,117.544c-1.122-2.736,0.589-9.584,0.758-13.117c0.141-2.944,0.655-7.089-0.323-9.791
		c4.619,1.352,9.984-0.098,14.708,1.414c4.669,1.494,3.909,4.117,3.864,8.852c-0.028,2.936,0.682,13.653-2.209,15.383
		c-1.547,0.926-4.798-1.545-6.176-1.97C114.404,117.106,111.22,118.415,107.708,117.544z"/>
	<path style="fill:#BDBEB5;" d="M227.693,121.9c-0.185-6.002,0.332-12.15,0.396-18.216c0.07-6.629,0.558-7.596,7.107-7.524
		c4.963,0.055,12.169-0.658,13.107,5.526c0.592,3.903,0.622,15.843-1.99,19.034C243.515,124.139,231.883,121.772,227.693,121.9z"/>
</g>
<path style="fill:#F4F4EB;" d="M330.651,40.326c0,15.214-6.525,26.668-21.839,30.183c-11.719,2.69-24.278,2.071-36.254,2.812
	c-12.93,0.8-25.887,1.568-38.845,1.039c-17.955-0.733-35.955-0.771-53.956-0.771c-33.172,0-66.761-5.702-99.777-2.859
	c-8.623,0.743-25.994,0.471-28.158,12.164c-1.56,8.428,14.508,10.194,19.842,10.889c15.921,2.074,32.719-0.011,48.72,0.001
	c16.005,0.012,31.982-0.793,47.994-0.792c45.685,0.004,91.04,5.298,136.541,0.505c11.49-1.21,20.588-5.923,29.296-13.264
	c6.224-5.247,12.194-9.772,14.168-18.118c1.232-5.209,1.605-12.014,0.899-17.345c-0.72-5.436-2.655-9.778-7.543-12.362
	C335.635,29.18,332.483,32.029,330.651,40.326z"/>
<path d="M126.69,390.701c-17.124-1.148-30.508,13.578-32.287,29.316c-2.055,6.364-1.833,13.146,2.182,19.64
	c5.679,9.184,19.776,15.298,30.25,13.494c8.874-1.528,15.883-10.959,19.455-18.574C153.813,418.537,147.668,392.108,126.69,390.701z
	 M139.587,428.451c-2.963,9.065-10.304,17.187-20.166,16.703c-7.025-0.345-15.71-4.609-18.528-11.465
	c-1.224-2.98-1.586-5.969-1.338-8.903c1.069-4.517,2.516-8.783,4.667-12.481c1.418-2.168,3.081-4.213,4.863-6.124
	c2.776-2.509,6.265-4.413,10.701-5.488C136.372,396.676,144.108,414.615,139.587,428.451z"/>
<path d="M386.856,390.701c-17.124-1.148-30.508,13.578-32.287,29.316c-2.055,6.364-1.833,13.146,2.182,19.64
	c5.679,9.184,19.776,15.298,30.25,13.494c8.874-1.528,15.883-10.959,19.455-18.574C413.98,418.537,407.834,392.108,386.856,390.701z
	 M399.754,428.451c-2.963,9.065-10.304,17.187-20.166,16.703c-7.025-0.345-15.71-4.609-18.528-11.465
	c-1.224-2.98-1.586-5.969-1.338-8.903c1.069-4.517,2.516-8.783,4.667-12.481c1.418-2.168,3.081-4.213,4.863-6.124
	c2.776-2.509,6.265-4.413,10.701-5.488C396.538,396.676,404.275,414.615,399.754,428.451z"/>
<path d="M325.357,215.209c-0.002-0.645-0.125-1.208-0.336-1.692c3.294-14.482-4.816-32.674-10.732-44.749
	c-5.746-11.728-12.251-22.55-25.345-26.505c-14.68-4.433-30.156-4.661-45.335-4.262c-11.072,0.291-22.48,0.455-33.755,1.092
	c-3.653,0.079-7.241,0.131-10.735,0.112c-31.677-0.17-63.308,0.02-94.947,1.141c-25.466,0.901-49.35,9.754-63.088,32.402
	c-7.342,12.103-11.251,29.263-5.863,41.97c-0.02,0.264-0.05,0.553-0.06,0.786c-0.207,4.791-0.226,9.584-0.52,14.371
	c-0.621,10.104-0.286,19.951-0.341,30.046c-0.104,19.144,1.881,38.04,5.346,56.853c1.953,10.603,3.219,33.894,15.129,38.58
	c5.492,2.161,12.14,1.569,17.815,0.673c12.477-1.971,24.442-5.523,37.079-6.778c21.794-2.165,48.902-4.865,69.341,3.764
	c16.486,6.961,29.173,18.986,47.158,22.351c19.551,3.658,41.362,3.902,61.034,0.878c15.595-2.398,29.627-10.197,34.17-25.997
	c5.791-20.138,4.862-43.811,4.257-64.558C324.942,262.189,325.436,238.656,325.357,215.209z M245.008,149.521
	c9.873,0.051,19.99,1.425,29.961,1.603c3.621,0.781,7.203,1.733,10.718,2.95c11.002,3.811,15.35,16.424,19.732,26.205
	c4.774,10.655,13.022,26.934,3.029,36.779c-7.624,7.512-19.608,7.077-29.494,6.632c-11.361-0.511-23.067,0.469-34.524,0.456
	c-2.517-0.003-5.038,0-7.558-0.001c1.013-13.14-0.079-26.665-0.011-39.796c0.059-11.556-0.07-23.288-1.369-34.818
	C238.663,149.53,241.825,149.504,245.008,149.521z M175.286,150.246c9.384-0.115,18.774-0.224,28.182-0.412
	c8.948-0.179,17.849-0.26,26.759-0.295c-1.068,11.494-0.056,23.317-0.212,34.812c-0.178,13.054-1.068,26.699-0.02,39.796
	c-18.224,0.007-36.473,0.041-54.725-0.012C174.818,199.494,174.152,174.791,175.286,150.246z M51.988,177.061
	c13.931-20.848,36.024-23.677,58.498-24.924c-1.788,12.959-2.513,26.199-3.379,39.204c-0.526,7.897-0.298,15.95-0.33,23.868
	c-0.01,2.507-0.29,5.325-0.246,8.076c-5.921-0.155-11.839-0.335-17.752-0.547c-11.333-0.406-27.872,1.702-37.836-4.678
	C37.136,209.219,44.846,187.748,51.988,177.061z M167.502,298.956c-0.588,14.064,0.47,28.256-0.479,42.303
	c-13.958-2.469-29.044-0.634-42.867-0.309c-17.819,0.418-34.13,4.615-51.557,7.524c-11.214,1.872-17.062,0.835-20.419-10.336
	c-2.681-8.921-4.718-17.83-6.488-26.973c-3.908-20.194-4.153-40.275-5.508-60.685c-0.63-9.49-0.188-18.98-0.348-28.486
	c2.673,2.93,6.174,5.354,10.639,7.057c13.172,5.026,28.895,3.736,42.682,4.401c16.625,0.803,33.209,0.816,49.85,0.895
	c8.617,0.041,17.231,0.145,25.844,0.28c0.066,3.709,0.106,7.398,0.093,11.049C168.881,263.455,168.244,281.215,167.502,298.956z
	 M168.606,224.105c-17.94-0.075-35.879-0.241-53.794-0.638c-1.551-12.43,0.671-26.833,0.722-39.045
	c0.039-9.263,2.854-22.96-0.367-32.527c1.649-0.081,3.297-0.16,4.941-0.243c16.937-0.854,33.831-1.134,50.741-1.351
	C166.816,174.099,167.928,199.469,168.606,224.105z M316.321,322.425c-0.54,8.882-0.833,18.878-3.715,27.315
	c-4.31,12.619-17.935,17.467-30.132,18.807c-19.779,2.172-41.913,3.302-61.279-1.994c-15.747-4.307-28.45-16.662-43.823-22.507
	c-0.97-0.368-1.95-0.7-2.938-1.009c1.291-13.903-0.076-28.03,0.146-41.992c0.281-17.688,1.035-35.391,0.982-53.099
	c-0.013-4.395-0.057-8.795-0.118-13.198c22.995,0.403,45.98,0.981,68.986,1.222c12.338,0.129,24.719-0.204,36.974,0.198
	c11.73,0.384,23.879-1.007,33.733-7.967c0.63-0.445,1.227-0.906,1.793-1.38C316.138,258.658,318.256,290.614,316.321,322.425z"/>
<path d="M216.842,251.319c-4.348-3.018-10.402-2.736-15.431-2.572c-4.306,0.141-8.539,0.848-12.094,2.905
	c-2.536,1.042-4.568,2.787-5.541,5.568c-3.578,10.228,17.07,12.019,22.802,11.658c4.592-0.29,10.726-2.536,12.952-6.862
	C221.499,258.188,220.365,253.764,216.842,251.319z M212.265,260.61c-1.639,2.563-8.008,2.309-10.479,2.198
	c-3.005-0.135-12.86-1.567-11.557-4.428c4.586-1.694,8.692-3.034,13.999-3.02C206.47,255.366,215.957,254.835,212.265,260.61z"/>
<path d="M85.571,251.319c-4.348-3.018-10.402-2.736-15.432-2.572c-4.306,0.141-8.539,0.848-12.094,2.905
	c-2.536,1.042-4.568,2.787-5.541,5.568c-3.578,10.228,17.07,12.019,22.802,11.658c4.592-0.29,10.726-2.536,12.952-6.862
	C90.228,258.188,89.094,253.764,85.571,251.319z M80.994,260.61c-1.639,2.563-8.008,2.309-10.479,2.198
	c-3.005-0.135-12.86-1.567-11.557-4.428c4.586-1.694,8.692-3.034,13.999-3.02C75.199,255.366,84.686,254.835,80.994,260.61z"/>
<path d="M500.498,374.832c-1.295-0.563-3.581-0.949-6.12-1.025c0.743-1.815,1.288-3.708,1.563-5.676
	c1.89-13.566,0.906-27.867,0.11-41.466c-1.011-17.272-2.296-33.977-5.109-51.048c-2.418-14.676-6.823-28.964-16.818-40.345
	c-9.359-10.656-24.459-14.934-37.838-18.039c-32.654-7.578-70.299-15.406-88.212-46.535c-6.96-12.095-12.349-25.109-22.521-35.032
	c-10.652-10.391-24.991-13.373-39.265-15.492c-11.518-1.711-23.163-2.756-34.858-3.479c-0.262-5.501,1.077-11.396-0.135-16.532
	c5.621,0.122,11.241,0.271,16.855,0.479c24.273,0.901,49.587,2.693,69.947-12.568c9.531-7.144,16.094-15.135,17.454-27.284
	c1.106-9.884-0.767-25.643-8.772-32.717c-5.947-5.256-16.318-6.63-20.985,1.112c-1.982,3.288-1.686,7.353-1.402,11.067
	c0.764,10.015-0.329,18.216-9.48,24.17c-0.534,0.348-0.91,0.753-1.174,1.183c-14.915,6.598-38.947,5.516-52.023,4.812
	c-29.488-1.587-59.094-0.662-88.606-1.828c-25.161-0.994-50.328-1.11-75.448-2.425c-14.016-0.733-48.799-2.87-51.353,17.381
	c-2.633,20.876,32.477,14.426,43.967,14.915c5,0.213,10.022,0.368,15.042,0.532c-0.699,2.998-0.615,6.486-0.77,8.959
	c-0.112,1.78-0.441,3.749-0.582,5.668c-10.084,0.652-20.187,1.589-30.344,2.929c-29.52,3.896-55.235,18.251-64.41,47.966
	c-5.791,18.756-4.507,39.878-4.855,59.295c-0.368,20.572-0.004,41.38,0.598,61.947c0.561,19.158,1.147,38.315,2.578,57.434
	c0.628,8.392-0.778,25.313,3.47,35.549c-8.309,4.645-11.3,15.872-10.979,25.359c0.528,15.625,9.802,21.184,24.284,21.953
	c8.314,0.442,16.534-0.689,24.765-0.328c3.273,0.144,6.356,0.676,9.21,0.464c-1.596,36.746,31.636,62.646,66.643,62.046
	c36.957-0.634,55.188-33.511,55.179-66.128c9.688,2.071,20.651,0.984,30.119,1.226c14.388,0.368,28.761,1.454,43.118,2.209
	c12.155,0.639,24.334,1.244,36.527,1.305c8.166,0.041,19.678,2.058,28.545,0.118c-1.099,36.336,31.918,61.866,66.679,61.27
	c33.788-0.58,51.911-28.109,54.763-57.751c24.374,9.583,58.178,10.543,68.124-18.698
	C512.431,398.678,516.597,381.826,500.498,374.832z M481.11,322.26c0.401,6.247,1.114,12.957,1.487,19.682
	c-2.533,0.087-5.017,1.037-7.747,1.563c-4.523,0.871-9.232,1.117-13.876,1.46c-0.016-1.769,0.009-3.524,0.126-5.242
	c0.655-9.614,1.455-19.207,8.241-26.72c3.411-3.776,6.989-5.052,10.764-6.639C480.467,311.656,480.77,316.958,481.11,322.26z
	 M482.832,349.248c0.022,5.171-0.301,10.259-1.31,15.052c-2.248,10.683-9.717,14.275-18.239,16.465
	c-0.357-4.752-0.067-9.93-0.537-14.353c-0.582-5.478-1.323-11.29-1.638-17.016c4.866,0.679,9.807,1.387,14.66,0.897
	C477.984,350.07,480.576,349.935,482.832,349.248z M354.419,200.487c12.968,10.747,28.935,17.638,45.841,22.266
	c13.921,3.811,28.284,6.791,41.958,11.292c2.814,0.926,5.646,1.79,8.383,2.821c-7.129,8.723-14.155,16-26.997,14.471
	c-10.828-1.289-21.545-6.858-31.565-10.922c-9.351-3.793-19.208-8.271-27.603-13.898
	C353.874,219.437,352.142,210.998,354.419,200.487z M70.699,89.364c-3.333,0.086-12.853,1.221-14.73-2.603
	c-2.225-4.53,7.865-8.022,10.185-8.678c11.062-3.13,23.849-1.817,35.188-1.509c47.721,1.297,95.533,2.631,143.319,3.535
	c25.014,0.473,101.483,5.071,89.329-36.33v-0.016c-0.049-1.713-0.915-4.305-0.229-5.977c2.429-5.911,8.844,3.623,10.468,7.377
	c6.191,14.309-2.852,28.499-14.077,36.441c-10.116,7.158-21.185,9.526-33.467,9.556c-49.821,0.125-99.911,0.303-149.711-1.009
	C121.571,89.479,96.098,88.705,70.699,89.364z M231.827,99.851c4.402,0.046,8.801,0.123,13.201,0.2
	c-1.721,4.769-2.066,10.689-2.338,15.349c-0.016,0.265-0.032,0.536-0.049,0.811c-3.551-0.176-7.105-0.336-10.66-0.476
	c0.052-1.803,0.237-3.624,0.325-5.226C232.5,106.976,232.405,103.366,231.827,99.851z M131.052,99.644
	c15.39,0.261,30.789,0.327,46.089,0.213c16.149-0.121,32.32-0.192,48.484-0.079c-0.785,4.717-0.978,9.616-1.637,14.307
	c-0.061,0.436-0.137,0.883-0.216,1.336c-12.882-0.453-25.751-0.822-38.508-1.539c-18.404-1.035-36.597-1.581-54.767-1.3
	c0.068-1.217,0.205-2.424,0.254-3.471C130.868,106.569,131.338,102.904,131.052,99.644z M112.855,107.95
	c-0.188-2.581-0.066-5.781-0.409-8.714c3.733,0.105,7.471,0.18,11.209,0.259c-0.592,4.407-1.012,8.869-1.383,13.272
	c-3.147,0.093-6.295,0.21-9.444,0.358C112.851,111.409,112.98,109.68,112.855,107.95z M63.633,403.12
	c-1.456,3.419-2.641,6.945-3.533,10.532c-2.19-0.225-6.237-0.027-6.606-0.038c-3.679-0.112-7.258-0.466-10.953-0.173
	c-5.502,0.436-10.734,0.706-16.261,0.757c-1.703,0.016-4.686,0.649-6.321,0.122c-5.153-1.659-9.825-9.236-8.855-14.847
	c2.703-15.644,22.545-6.761,33.02-4.468c6.857,1.501,14.695,3.336,21.92,2.522C65.158,399.365,64.331,401.223,63.633,403.12z
	 M19.144,342.589c3.841,0.408,7.316,1.487,9.657,5.491c2.695,4.61,3.531,11.962,3.983,17.003c0.39,4.349-0.281,8.911-0.111,13.311
	c-4.27-1.07-8.646-1.878-12.735-1.817c-0.651-4.601,0.028-11.272-0.053-14.566C19.726,355.525,19.455,349.067,19.144,342.589z
	 M159.408,452.052c-9.256,15.232-21.964,24.355-40.502,22.953c-19.712-1.49-36.205-10.989-44.598-29.187
	c-11.441-24.809,1.618-48.883,21.179-65.32c9.79-6.368,20.924-10.708,32.668-8.666c18.759,3.262,30.248,12.366,35.595,31.051
	C168.284,418.73,168.145,437.674,159.408,452.052z M419.574,452.052c-9.256,15.232-21.964,24.355-40.502,22.953
	c-19.712-1.49-36.205-10.989-44.598-29.187c-11.441-24.809,1.618-48.883,21.179-65.32c9.79-6.368,20.923-10.708,32.668-8.666
	c18.759,3.262,30.248,12.366,35.595,31.051C428.45,418.73,428.311,437.674,419.574,452.052z M435.019,392.865
	c-8.534-22.253-27.461-38.579-56.596-34.788c-23.806,3.098-46.22,22.196-54.623,45.043c-1.406,3.301-2.557,6.704-3.438,10.163
	c-10.272-2.531-21.748-1.076-32.156-1.04c-11.631,0.041-23.27-0.484-34.869-0.994c-24.269-1.066-49.681-3.288-74.025-0.73
	c-4.124-30.451-24.603-57.187-61.055-52.443c-19.066,2.481-37.219,15.237-48.016,31.95c-8.754-3.355-17.442-5.915-26.588-8.531
	c-0.81-0.232-1.648-0.478-2.498-0.729c-0.03-0.241-0.066-0.484-0.144-0.74c-1.237-4.049-0.342-9.218-0.734-13.395
	c-0.573-6.102-1.765-12.203-4.19-17.855c-3.907-9.105-9.288-11.262-17.117-10.617c-0.638-14.906-0.599-29.786-1.036-44.693
	c-0.934-31.919,0.119-63.991,1.181-95.889c0.566-16.986,2.684-34.633,14.318-47.953c11.295-12.931,30.002-17.263,46.347-19.264
	c32.448-3.973,64.494-4.369,97.09-2.498c30.981,1.778,62.036,2.565,92.985,4.904c14.168,1.071,31.731,2.266,43.286,11.248
	c11.34,8.816,16.173,23.495,23.244,35.467c4.123,6.983,9.117,12.963,14.751,18.141c-3.6,8.355-5.669,17.513,0.041,25.449
	c8.432,11.719,26.194,18.454,38.959,24.022c12.293,5.361,27.546,14.113,41.454,13.058c11.162-0.846,20.073-10.908,26.724-19.503
	c1.531,1.005,2.983,2.159,4.317,3.542c6.007,6.225,9.37,14.471,11.639,22.662c3.105,11.209,4.525,22.614,5.442,34.092
	c-4.675,0.711-8.677,1.209-13.152,4.925c-6.45,5.357-10.579,13.985-11.938,22.109c-1.849,11.056-1.372,22.256-0.629,33.393
	c0.342,5.131-0.503,14.418,0.71,21.303c-3.502,0.748-6.959,1.564-10.099,2.816C440.845,386.991,437.604,389.622,435.019,392.865z
	 M494.47,409.983c-3.9,9.505-12.624,12.688-22.298,13.787c-7.793,0.885-17.457-0.284-25.229-1.565
	c-2.539-0.418-4.637-0.879-6.705-0.886c-0.025-2.61-0.151-5.217-0.408-7.804c1.725-7.219,6.079-13.482,13.362-15.255
	c7.151-1.741,13.884-2.692,20.82-5.536c4.193-1.719,8.362-4.267,11.943-7.449c0.382,0.085,0.767,0.147,1.142,0.124
	C502.027,384.483,497.966,401.461,494.47,409.983z"/>
<path d="M386.709,267.11c-5.094,0.314-10.735,2.167-13.027,7.109c-1.991,4.292-2.898,10.248,1.016,13.565
	c0.568,0.482,1.238,0.668,1.893,0.648c7.23,6.61,23.922,5.668,29.419-2.114C414.462,274.353,395.772,266.55,386.709,267.11z
	 M398.529,284.838c-3.626,2.825-13.627,2.986-17.661,0.495c-1.889-1.166-2.721-3.04-2.718-4.96c0.209-1.387,0.785-2.748,1.585-3.845
	c1.856-2.548,4.718-3.059,7.782-3.149C392.843,273.224,407.709,277.684,398.529,284.838z"/>
<g>
</g>

</svg>
