<?xml version="1.0" encoding="iso-8859-1"?>
<!-- Generator: Adobe Illustrator 22.0.1, SVG Export Plug-In . SVG Version: 6.00 Build 0)  -->
<svg version="1.1" id="Capa_1" xmlns="http://www.w3.org/2000/svg" xmlns:xlink="http://www.w3.org/1999/xlink" x="0px" y="0px"
	 viewBox="-49 141 512 512" style="enable-background:new -49 141 512 512;" xml:space="preserve">
<path style="fill:none;stroke:#000000;stroke-miterlimit:10;" d="M86.594,359.213v-16.434c-2.945-49.915-3.804-87.68-3.804-87.68
	c14.514-140.998,163.087-100.13,176.322-72.657c14.629-3.891,66.962-13.218,72.107,72.657c0,0-0.985,37.776-3.93,87.68v16.393
	c0,45.671,21.136,88.842,57.352,117.156c-120.29,54.179-238.694,53.193-355.328,0C65.489,448.003,86.594,404.863,86.594,359.213"/>
<rect x="149.5" y="380.16" style="fill:#FFFFFF;stroke:#000000;stroke-miterlimit:10;" width="114.833" height="159.092"/>
<path style="fill:#FFFFFF;stroke:#000000;stroke-miterlimit:10;" d="M206.759,539.252c0,0,46.14,22.089,43.52,36.593l28.137-88.52
	L264.29,454.85C264.29,454.85,265.683,491.174,206.759,539.252"/>
<path style="fill:#FFFFFF;stroke:#000000;stroke-miterlimit:10;" d="M236.247,653.015H458.5l-6.864-60.02
	c-2.505-21.912-16.536-40.878-36.876-49.863l-119.525-52.747c0,0-22.677-31.032-30.945-35.535c0,0,6.874,25.077,0,48.286
	C261.052,514.04,248.581,582.921,236.247,653.015"/>
<path style="fill:#FFFFFF;stroke:#000000;stroke-miterlimit:10;" d="M237.232,653.015h46.266l35.399-75.116l-31.155-18.935
	l20.749-11.361l-14.901-59.429c-5.313-7.128-22.363-29.538-29.321-33.325c0,0,4.841,22.421,0,48.286
	C262.707,511.581,250.059,581.728,237.232,653.015"/>
<path style="fill:#FFFFFF;stroke:#000000;stroke-miterlimit:10;" d="M207.231,539.252c0,0-46.14,22.089-43.52,36.593l-28.126-88.52
	L149.7,454.85C149.7,454.85,148.306,491.174,207.231,539.252"/>
<path style="fill:#FFFFFF;stroke:#000000;stroke-miterlimit:10;" d="M177.753,653.015c-12.344-70.094-24.815-138.975-28.042-149.868
	c-6.874-23.209,0-48.286,0-48.286c-8.289,4.503-30.966,35.535-30.966,35.535L-0.76,543.132c-20.34,8.974-34.372,27.94-36.887,49.863
	l-6.853,60.02H177.753z"/>
<path style="fill:#FFFFFF;stroke:#000000;stroke-miterlimit:10;" d="M130.492,653.015h46.538
	c-12.753-71.329-25.422-141.496-27.319-149.868c-6.288-27.556,0-48.286,0-48.286c-6.958,3.787-24.008,26.197-29.321,33.325
	l-14.901,59.429l20.759,11.361L95.093,577.91L130.492,653.015z"/>
<path style="fill:#FFFFFF;stroke:#000000;stroke-miterlimit:10;" d="M111.42,214.252c-8.981,25.212-14.126,54.303-14.126,85.325
	c0,95.928,49.126,173.762,109.664,173.762s109.664-77.834,109.664-173.762c0-5.333-0.147-10.634-0.503-15.853
	c2.033-1.546,3.657-4.451,4.16-8.808c2.211-18.603,1.635-40.525-2.557-60.663H111.42z"/>
<path style="fill:#FFFFFF;stroke:#000000;stroke-miterlimit:10;" d="M288.423,417.739h-70.116V404.77h70.116
	c24.741,0,44.861-19.931,44.861-44.426v-26.073h13.099v26.073C346.383,391.998,320.374,417.739,288.423,417.739"/>
<path style="fill:#FFFFFF;stroke:#000000;stroke-miterlimit:10;" d="M102.931,342.82c5.261-23.977,5.701-44.986,12.344-70.405
	c0,0,130.088,28.781,183.972-23.323c0,0,16.809,53.079,12.973,93.729h15.048c2.966-49.925,3.909-87.722,3.909-87.722
	c-5.114-85.864-57.426-76.558-72.086-72.636C245.846,154.958,97.294,114.09,82.77,255.098c0,0,0.88,37.807,3.825,87.722H102.931z"/>
<g>
	<path style="fill:#FFFFFF;stroke:#000000;stroke-miterlimit:10;" d="M81.606,327.34v-20.646
		c0-69.783,57.342-126.545,127.814-126.545s127.804,56.773,127.804,126.545v20.646h18.957v-20.646
		c0-80.117-65.841-145.303-146.761-145.303S62.67,226.577,62.67,306.694v20.646H81.606z"/>
	<path style="fill:#FFFFFF;stroke:#000000;stroke-miterlimit:10;" d="M350.743,296.049c-9.704-4.337-21.304-7.107-33.869-7.719
		v71.931c12.565-0.622,24.175-3.372,33.869-7.709c3.29-1.484,5.449-4.7,5.449-8.3v-39.913
		C356.181,300.749,354.033,297.512,350.743,296.049"/>
</g>
<path style="fill:#FFFFFF;stroke:#000000;stroke-miterlimit:10;" d="M324.545,356.868v-65.156c0-5.468-4.485-9.887-10.008-9.887
	c-5.512,0-9.987,4.42-9.987,9.887v65.156c0,5.457,4.475,9.898,9.987,9.898C320.06,366.766,324.545,362.325,324.545,356.868"/>
<path style="fill:#FFFFFF;stroke:#000000;stroke-miterlimit:10;" d="M68.109,352.541c9.704,4.326,21.294,7.097,33.869,7.698v-71.92
	c-12.575,0.623-24.175,3.382-33.869,7.719c-3.301,1.484-5.449,4.7-5.449,8.29v39.923C62.67,347.841,64.808,351.058,68.109,352.541"
	/>
<path style="fill:#FFFFFF;stroke:#000000;stroke-miterlimit:10;" d="M94.307,291.712v65.145c0,5.468,4.475,9.908,9.997,9.908
	c5.512,0,9.997-4.441,9.997-9.908v-65.145c0-5.457-4.485-9.887-9.997-9.887C98.782,281.825,94.307,286.244,94.307,291.712"/>
<path style="fill:#FFFFFF;stroke:#000000;stroke-miterlimit:10;" d="M239.129,411.244c0,8.103-9.337,14.65-20.843,14.65
	s-20.854-6.547-20.854-14.65c0-8.082,9.347-14.639,20.854-14.639S239.129,403.162,239.129,411.244"/>
</svg>
