<svg id="Capa_1" data-name="Capa 1" xmlns="http://www.w3.org/2000/svg" viewBox="0 0 503 498.01"><defs><style>.cls-1{fill:#ce2929;}.cls-2{fill:#f8b64c;}.cls-3{fill:#f2f2f2;}.cls-4{fill:#686868;}.cls-5{fill:#3f3f3f;}.cls-6{fill:#ffd15c;}.cls-7{fill:#cdd6e0;}.cls-8{fill:#e8eaea;}</style></defs><title>contact</title><path class="cls-1" d="M135.59,218.21V201.78c-2.94-49.92-3.8-87.68-3.8-87.68C146.3-26.9,294.88,14,308.11,41.44c14.63-3.89,67-13.22,72.11,72.66,0,0-1,37.77-3.93,87.68v16.39a148.79,148.79,0,0,0,57.35,117.16c-120.29,54.18-238.69,53.19-355.32,0a148.8,148.8,0,0,0,57.27-117.12" transform="translate(-4.5 -14)"/><rect class="cls-2" x="194" y="225.16" width="114.83" height="159.09"/><path class="cls-3" d="M255.76,398.25s46.14,22.09,43.52,36.59l28.14-88.52-14.13-32.47s1.39,36.32-57.53,84.4" transform="translate(-4.5 -14)"/><path class="cls-4" d="M285.25,512H507.5l-6.86-60a62.36,62.36,0,0,0-36.88-49.86L344.23,349.39s-22.67-31-30.94-35.54c0,0,6.87,25.08,0,48.29-3.24,10.9-15.71,79.78-28,149.87" transform="translate(-4.5 -14)"/><path class="cls-5" d="M286.23,512H332.5l35.4-75.11L336.74,418l20.75-11.36-14.9-59.42c-5.31-7.13-22.36-29.54-29.32-33.33a135.93,135.93,0,0,1,0,48.29c-1.56,8.44-14.21,78.59-27,149.87" transform="translate(-4.5 -14)"/><path class="cls-3" d="M256.23,398.25s-46.14,22.09-43.52,36.59l-28.13-88.52,14.12-32.47s-1.39,36.32,57.53,84.4" transform="translate(-4.5 -14)"/><path class="cls-4" d="M226.75,512c-12.34-70.09-24.81-139-28-149.86-6.87-23.21,0-48.29,0-48.29-8.29,4.5-31,35.54-31,35.54L48.24,402.13A62.36,62.36,0,0,0,11.35,452L4.5,512Z" transform="translate(-4.5 -14)"/><path class="cls-5" d="M179.49,512H226c-12.75-71.32-25.42-141.49-27.32-149.86-6.29-27.56,0-48.29,0-48.29-7,3.79-24,26.2-29.32,33.33l-14.9,59.42L175.25,418l-31.16,18.94Z" transform="translate(-4.5 -14)"/><path class="cls-6" d="M160.42,73.25c-9,25.21-14.13,54.3-14.13,85.33,0,95.92,49.13,173.76,109.67,173.76S365.62,254.5,365.62,158.58c0-5.34-.14-10.64-.5-15.86,2-1.54,3.66-4.45,4.16-8.81a195.22,195.22,0,0,0-2.56-60.66Z" transform="translate(-4.5 -14)"/><path class="cls-7" d="M337.42,276.74H267.31v-13h70.11c24.74,0,44.86-19.93,44.86-44.43V193.27h13.1v26.07c0,31.66-26,57.4-58,57.4" transform="translate(-4.5 -14)"/><path class="cls-1" d="M151.93,201.82c5.26-24,5.7-45,12.35-70.41,0,0,130.08,28.78,184-23.32,0,0,16.81,53.08,13,93.73h15c3-49.93,3.91-87.72,3.91-87.72-5.12-85.87-57.43-76.56-72.09-72.64C294.85,14,146.29-26.91,131.77,114.1c0,0,.88,37.81,3.82,87.72Z" transform="translate(-4.5 -14)"/><path class="cls-4" d="M130.61,186.34V165.69c0-69.78,57.34-126.54,127.81-126.54s127.8,56.77,127.8,126.54v20.65h19V165.69c0-80.11-65.84-145.3-146.76-145.3S111.67,85.58,111.67,165.69v20.65Z" transform="translate(-4.5 -14)"/><path class="cls-4" d="M399.74,155.05a94.74,94.74,0,0,0-33.87-7.72v71.93a94.9,94.9,0,0,0,33.87-7.71,9.13,9.13,0,0,0,5.45-8.3V163.34a9.12,9.12,0,0,0-5.45-8.29" transform="translate(-4.5 -14)"/><path class="cls-8" d="M373.54,215.87V150.71a10,10,0,0,0-20,0v65.16a10,10,0,0,0,20,0" transform="translate(-4.5 -14)"/><path class="cls-4" d="M117.11,211.54a94.69,94.69,0,0,0,33.87,7.7V147.32A94.85,94.85,0,0,0,117.11,155a9.11,9.11,0,0,0-5.45,8.29v39.92a9.13,9.13,0,0,0,5.45,8.29" transform="translate(-4.5 -14)"/><path class="cls-8" d="M143.31,150.71v65.15a10,10,0,0,0,20,0V150.71a10,10,0,0,0-20,0" transform="translate(-4.5 -14)"/><path class="cls-7" d="M288.13,270.24c0,8.11-9.34,14.65-20.84,14.65s-20.86-6.54-20.86-14.65,9.35-14.64,20.86-14.64,20.84,6.56,20.84,14.64" transform="translate(-4.5 -14)"/></svg>