<svg id="Capa_1" data-name="Capa 1" xmlns="http://www.w3.org/2000/svg" viewBox="0 0 461.46 504.2"><defs><style>.cls-1{fill:#ce2929;}.cls-2{fill:#344a5e;}.cls-3{fill:#f0c419;}.cls-4{fill:#f05540;}.cls-5{fill:#686868;}</style></defs><title>emergency</title><path class="cls-1" d="M431.16,401.67H140.62v-188a145.27,145.27,0,1,1,290.54,0Zm0,0" transform="translate(-46.6)"/><rect class="cls-2" x="68.34" y="401.67" width="341.83" height="102.53"/><path class="cls-3" d="M442.22,36.68,416.56,62.34a8.54,8.54,0,0,0,12.1,12.06l25.62-25.62a8.54,8.54,0,0,0-12.06-12.1Zm0,0" transform="translate(-46.6)"/><path class="cls-3" d="M277.36,0a8.54,8.54,0,0,0-8.56,8.56V34.17a8.53,8.53,0,1,0,17.06,0V8.56A8.53,8.53,0,0,0,277.36,0Zm0,0" transform="translate(-46.6)"/><path class="cls-3" d="M473.89,205.09h25.62a8.53,8.53,0,1,0,0-17.06H473.89a8.53,8.53,0,1,0,0,17.06Zm0,0" transform="translate(-46.6)"/><path class="cls-3" d="M112.45,36.68a8.54,8.54,0,0,0-12.06,12.1L126,74.4a8.54,8.54,0,0,0,12.1-12.06Zm0,0" transform="translate(-46.6)"/><path class="cls-3" d="M80.78,188H55.16a8.53,8.53,0,1,0,0,17.06H80.78a8.53,8.53,0,1,0,0-17.06Zm0,0" transform="translate(-46.6)"/><path class="cls-4" d="M285.86,68.34a145.29,145.29,0,0,0-145.24,145.3v188H285.86Zm0,0" transform="translate(-46.6)"/><rect class="cls-5" x="68.34" y="401.67" width="170.92" height="102.53"/></svg>