<svg id="Capa_1" data-name="Capa 1" xmlns="http://www.w3.org/2000/svg" viewBox="0 0 442.45 511.84"><defs><style>.cls-1{fill:#415a6b;}.cls-2{fill:#f05540;}.cls-3{fill:#ce2929;}.cls-4{fill:#8ad7f8;}.cls-5{fill:#fff;}</style></defs><title>flood</title><path class="cls-1" d="M241.71,275.24V464.8a18.55,18.55,0,0,1-37.1,0V453.32a14.29,14.29,0,1,0-28.57,0V464.8a47.12,47.12,0,1,0,94.23,0V275.24Z" transform="translate(-34.77 -0.09)"/><path class="cls-1" d="M270.27,124.41V96.34a14.28,14.28,0,1,0-28.56,0v28.07Z" transform="translate(-34.77 -0.09)"/><path class="cls-2" d="M113.66,300.33c29.12,0,42.88,5.5,60.68,19.89,19.19-14.4,48.68-23.6,81.66-23.6s62.47,9.2,81.64,23.6c17.79-14.4,31.54-19.89,60.67-19.89,34.3,0,64,11.41,78.92,28.11C468.09,200.17,372.65,99.21,256,99.21S43.89,200.17,34.77,328.44c14.87-16.69,44.6-28.11,78.89-28.11" transform="translate(-34.77 -0.09)"/><path class="cls-3" d="M256,99.22h0c-36.79,0-70.95,89.28-81.33,220.78,19.16-14.25,48.54-23.37,81.33-23.37s62.14,9.12,81.31,23.37C326.93,188.5,292.79,99.22,256,99.22" transform="translate(-34.77 -0.09)"/><path class="cls-4" d="M114.29,135.59a26.45,26.45,0,1,1-52.9,0c0-14.6,26.45-48.84,26.45-48.84s26.45,34.24,26.45,48.84" transform="translate(-34.77 -0.09)"/><path class="cls-5" d="M87.83,153.62a18,18,0,0,1-18-18,2.82,2.82,0,1,1,5.64,0A12.39,12.39,0,0,0,87.84,148a2.82,2.82,0,1,1,0,5.63" transform="translate(-34.77 -0.09)"/><path class="cls-4" d="M282.45,48.94a26.46,26.46,0,1,1-52.92,0C229.53,34.33,256,.09,256,.09s26.45,34.24,26.45,48.85" transform="translate(-34.77 -0.09)"/><path class="cls-5" d="M256,67a18.06,18.06,0,0,1-18-18,2.83,2.83,0,0,1,5.66,0A12.38,12.38,0,0,0,256,61.33,2.82,2.82,0,1,1,256,67" transform="translate(-34.77 -0.09)"/><path class="cls-4" d="M437.4,93.25a26.47,26.47,0,0,1-52.93,0c0-14.62,26.45-48.86,26.45-48.86S437.4,78.63,437.4,93.25" transform="translate(-34.77 -0.09)"/><path class="cls-5" d="M410.91,111.29a18,18,0,0,1-18-18,2.82,2.82,0,1,1,5.63,0,12.39,12.39,0,0,0,12.39,12.39,2.82,2.82,0,1,1,0,5.64" transform="translate(-34.77 -0.09)"/><path class="cls-4" d="M176,237.51a26.45,26.45,0,1,1-52.9,0c0-14.61,26.45-48.85,26.45-48.85S176,222.89,176,237.51" transform="translate(-34.77 -0.09)"/><path class="cls-5" d="M149.58,255.54a18.05,18.05,0,0,1-18-18,2.83,2.83,0,0,1,5.65,0,12.4,12.4,0,0,0,12.4,12.4,2.82,2.82,0,1,1,0,5.63" transform="translate(-34.77 -0.09)"/><path class="cls-4" d="M374,203a26.47,26.47,0,0,1-52.93,0c0-14.62,26.47-48.86,26.47-48.86S374,188.35,374,203" transform="translate(-34.77 -0.09)"/><path class="cls-5" d="M347.58,221a18,18,0,0,1-18-18,2.83,2.83,0,0,1,5.65,0,12.39,12.39,0,0,0,12.39,12.39,2.82,2.82,0,1,1,0,5.63" transform="translate(-34.77 -0.09)"/></svg>