<svg id="Capa_1" data-name="Capa 1" xmlns="http://www.w3.org/2000/svg" viewBox="0 0 512 512"><defs><style>.cls-1{fill:#f05540;}.cls-2{fill:#d3d2d1;}.cls-3{fill:#aaa;}.cls-4{fill:#55c0eb;}.cls-5{fill:#e8eae9;}.cls-6{fill:none;}.cls-7{fill:#415a6b;}.cls-8{fill:#344a5e;}.cls-9{fill:#ce2929;}</style></defs><title>house color</title><rect class="cls-1" x="83.2" y="43.73" width="58.67" height="110.93"/><rect class="cls-2" x="48" y="215.47" width="417.07" height="296.53"/><rect class="cls-3" x="48" y="215.47" width="417.07" height="33.07"/><polygon class="cls-4" points="183.47 277.33 328.53 277.33 328.53 423.47 183.47 423.47 183.47 277.33"/><path class="cls-5" d="M332.8,427.73H179.2V273.07H332.8ZM187.73,419.2H323.2V281.6H187.73Z"/><line class="cls-6" x1="183.47" y1="350.93" x2="328.53" y2="350.93"/><rect class="cls-5" x="183.47" y="345.6" width="145.07" height="8.53"/><line class="cls-6" x1="256" y1="277.33" x2="256" y2="423.47"/><rect class="cls-5" x="251.73" y="277.33" width="8.53" height="146.13"/><rect class="cls-7" x="171.73" y="419.2" width="167.47" height="18.13"/><rect class="cls-8" x="193.07" y="437.33" width="125.87" height="18.13"/><polygon class="cls-9" points="512 215.47 0 215.47 256 0 512 215.47"/><rect class="cls-9" x="67.2" y="9.6" width="90.67" height="49.07"/></svg>