<svg id="Capa_1" data-name="Capa 1" xmlns="http://www.w3.org/2000/svg" viewBox="0 0 514.74 513.15"><defs><style>.cls-1{fill:#fff;stroke:#000;stroke-miterlimit:10;}</style></defs><title>house bw</title><rect class="cls-1" x="84.57" y="44.39" width="58.67" height="110.93"/><rect class="cls-1" x="49.37" y="216.12" width="417.07" height="296.53"/><rect class="cls-1" x="49.37" y="216.12" width="417.07" height="33.07"/><polygon class="cls-1" points="184.84 277.99 329.9 277.99 329.9 424.12 184.84 424.12 184.84 277.99"/><line class="cls-1" x1="184.84" y1="351.59" x2="329.9" y2="351.59"/><rect class="cls-1" x="184.84" y="346.25" width="145.07" height="8.53"/><line class="cls-1" x1="257.37" y1="277.99" x2="257.37" y2="424.12"/><rect class="cls-1" x="253.1" y="277.99" width="8.53" height="146.13"/><polygon class="cls-1" points="513.37 216.12 1.37 216.12 257.37 0.65 513.37 216.12"/><rect class="cls-1" x="68.57" y="10.25" width="90.67" height="49.07"/><path class="cls-1" d="M332.8,427.73H179.2V273.07H332.8ZM187.73,419.2H323.2V281.6H187.73Z" transform="translate(1.37 0.65)"/><rect class="cls-1" x="173.1" y="419.85" width="167.47" height="18.13"/><rect class="cls-1" x="194.44" y="437.99" width="125.87" height="18.13"/></svg>