<svg id="Capa_1" data-name="Capa 1" xmlns="http://www.w3.org/2000/svg" viewBox="0 0 512.06 412.42"><defs><style>.cls-1{fill:#e8eae9;}.cls-2{fill:#bfc1c0;}.cls-3{fill:#ffd15c;}.cls-4{fill:#020202;}.cls-5{fill:#f7b64c;}.cls-6{fill:#ced6e0;}.cls-7{fill:#ce2929;}.cls-8{fill:#f3f3f3;}.cls-9{fill:#aaa;}.cls-10{fill:#344a5e;}.cls-11{fill:#415a6b;}.cls-12{fill:#2d4354;}.cls-13{fill:#686868;}</style></defs><title>insurance help</title><polygon class="cls-1" points="388.27 259.89 41.6 251.35 16 298.29 388.27 298.29 388.27 259.89"/><path class="cls-2" d="M136.53,142.93s-10.66,3.2-23.46,7.47-34.14,12.8-38.4,14.93-5.34,13.87-6.4,20.27-3.2,18.13-3.2,18.13L73.6,297.6l71.47,5.33s-2.14-93.86-4.27-117.33S136.53,142.93,136.53,142.93Z" transform="translate(0 -49.45)"/><path class="cls-3" d="M137.6,113.07s0,44.8,14.93,57.6l9.6,25.6,30.94-17.07s1.06-22.4,2.13-29.87a128.15,128.15,0,0,0,3.2-14.93l8.53-43.73C206.93,91.73,141.87,77.87,137.6,113.07Z" transform="translate(0 -49.45)"/><path class="cls-4" d="M194.13,134.47l4.27-.94a52.13,52.13,0,0,1,5.33-11.28c3.2-3.75,7.47-.94,7.47-.94s9.6-16,6.4-32.88-29.87-29.12-45.87-27.24a47.85,47.85,0,0,0-36.26,23.49c-6.4,11.27,0,24.42,1.06,26.3a8.42,8.42,0,0,1,1.07,3.76,6.83,6.83,0,0,1,2.13-4.7s17.07,3.76,32-.94l14.94-4.7s-3.2,9.4,4.26,14.1c3.2,1.88,4.27,4.69,4.27,8.45Z" transform="translate(0 -49.45)"/><ellipse class="cls-3" cx="203.58" cy="127.85" rx="12.8" ry="6.4" transform="translate(2.98 210.88) rotate(-65.57)"/><path class="cls-5" d="M195.2,148.27c-5.33,8.53-20.27,20.26-29.87,24.53-8.53,3.2-12.8-1.07-12.8-1.07l5.34,14.94a59.4,59.4,0,0,0,16-11.74c12.8-11.73,21.33-26.66,21.33-26.66Z" transform="translate(0 -49.45)"/><polygon class="cls-6" points="145.07 256.69 189.87 265.22 202.67 134.02 173.87 132.95 169.6 132.95 140.8 134.02 145.07 256.69"/><path class="cls-7" d="M187.73,188.8s-9.6,16-10.66,22.4c-2.14-2.13-5.34-1.07-9.6,0,0,0-4.27-20.27-17.07-26.67l19.2-3.2h4.27Z" transform="translate(0 -49.45)"/><path class="cls-7" d="M173.87,194.13,176,211.2s8.53,35.2,10.67,49.07c3.2,13.86,3.2,55.46,3.2,55.46l-34.14-3.2s-1.06-53.33,2.14-66.13c2.13-12.8,8.53-35.2,8.53-35.2Z" transform="translate(0 -49.45)"/><path class="cls-8" d="M195.2,148.27s-4.27,21.33-22.4,34.13l25.6,16,1.07-42.67Z" transform="translate(0 -49.45)"/><path class="cls-8" d="M152.53,170.67l16,11.73-27.73,16-4.27-51.2C137.6,148.27,147.2,166.4,152.53,170.67Z" transform="translate(0 -49.45)"/><path class="cls-9" d="M145.07,318.93s-3.2-75.73-7.47-97.06-8.53-52.27-8.53-52.27l4.26-4.27L128,163.2s5.33-17.07,11.73-25.6c1.07,9.6,4.27,20.27,8.54,27.73,0,23.47,0,60.8,4.26,75.74C155.73,257.07,150.4,304,145.07,318.93Z" transform="translate(0 -49.45)"/><path class="cls-2" d="M202.67,140.8s19.2,3.2,29.86,7.47,18.14,6.4,18.14,6.4,3.2,0,6.4,8.53,9.6,48,11.73,55.47,11.73,59.73,11.73,64c-1.06,4.26-9.6,23.46-53.33,34.13a33,33,0,0,0-13.87-17.07c-11.73-6.4-18.13-3.2-18.13-3.2l-7.47,2.14Z" transform="translate(0 -49.45)"/><path class="cls-9" d="M220.8,179.2s-17.07,55.47-22.4,70.4c-5.33,16-14.93,65.07-14.93,65.07s1.06-6.4,0-22.4,0-54.4,1.06-62.94,8.54-50.13,9.6-60.8a61.44,61.44,0,0,0,0-21.33h0c1.07-3.2,2.14-7.47,2.14-9.6l1.06,1.07c2.14,1.06,4.27,0,6.4-2.14,4.27,7.47,9.6,26.67,9.6,26.67l-4.26,7.47Z" transform="translate(0 -49.45)"/><path class="cls-9" d="M189.87,294.4h0c1.06-2.13,2.13-2.13,3.2-3.2a23.21,23.21,0,0,1,5.33-3.2,51.9,51.9,0,0,1,7.47-3.2c3.2-1.07,5.33-1.07,8.53-2.13,1.07,0,3.2-1.07,4.27-1.07,1.06-1.07,3.2-1.07,4.26-2.13A25,25,0,0,0,230.4,272c1.07-1.07,1.07-3.2,1.07-5.33v-6.4c-1.07-7.47-1.07-14.94-1.07-22.4,0-3.2,0-7.47,1.07-10.67s2.13-5.33,3.2-8.53c4.26-10.67,6.4-17.07,6.4-17.07a18.61,18.61,0,0,1-1.07,5.33c-1.07,3.2-2.13,7.47-4.27,12.8,0,1.07-1.06,3.2-1.06,4.27s-1.07,3.2-1.07,4.27a29.44,29.44,0,0,0-1.07,9.6v10.66c0,3.2,1.07,7.47,1.07,10.67v6.4c0,2.13-1.07,4.27-1.07,5.33-2.13,3.2-5.33,6.4-7.46,7.47a8.06,8.06,0,0,1-4.27,2.13,9.58,9.58,0,0,1-5.33,1.07c-3.2,1.07-6.4,1.07-8.54,2.13-3.2,1.07-5.33,1.07-7.46,2.14s-3.2,2.13-5.34,3.2C192,293.33,189.87,294.4,189.87,294.4Z" transform="translate(0 -49.45)"/><path class="cls-3" d="M157.87,298.67s1.06,7.46,10.66,11.73,36.27,3.2,36.27,3.2-9.6-17.07-16-20.27a51.85,51.85,0,0,0-13.87-4.26Z" transform="translate(0 -49.45)"/><path class="cls-5" d="M176,300.8l-1.07,1.07h0v1.06c-1.06,1.07-1.06,2.14-2.13,3.2l-1.07,1.07h-1.06l-1.07-1.07v-1.06c0-1.07,1.07-2.14,1.07-3.2h0V297.6l1.06-2.13-1.06,2.13a23.17,23.17,0,0,1-4.27,5.33c-1.07,1.07-1.07,2.14-2.13,3.2v1.07h0v-1.07c1.06-1.06,1.06-2.13,2.13-3.2l3.2-3.2h0c-1.07,1.07-1.07,2.14-1.07,4.27v2.13h3.2c1.07,0,1.07-1.06,2.14-1.06,1.06-1.07,2.13-2.14,2.13-3.2V300.8h0c0,1.07,1.07,1.07,0,0,3.2-1.07,4.27-2.13,6.4-4.27h6.4a1,1,0,0,1-1.07,1.07v3.2c-1.06,2.13-1.06,3.2-2.13,5.33h7.47L195.2,304c0-1.07,1.07-1.07,1.07-2.13v10.66l1.06,1.07,1.07,1.07,1.07,1.06h0l-1.07-1.06-1.07-1.07-1.06-1.07v-12.8l-1.07,1.07c0,1.07-1.07,2.13-2.13,3.2s-1.07,2.13-2.14,2.13H185.6c1.07-2.13,2.13-3.2,2.13-5.33v-3.2a1,1,0,0,1,1.07-1.07V294.4h-8.53l-2.14,2.13A5.53,5.53,0,0,1,176,300.8Z" transform="translate(0 -49.45)"/><path class="cls-10" d="M282.67,315.73l-8.54,5.34s-14.93-12.8-11.73-24.54S288,298.67,282.67,315.73Z" transform="translate(0 -49.45)"/><path class="cls-11" d="M376.53,272s-21.33,14.93-22.4,19.2c-1.06,5.33-1.06,6.4-5.33,9.6s-12.8,5.33-12.8,5.33,1.07,3.2-5.33,5.34S275.2,320,275.2,320s9.6-8.53,6.4-13.87c-3.2-6.4-28.8-13.86-28.8-13.86a49.59,49.59,0,0,1,19.2-6.4c10.67-2.14,16-5.34,19.2-5.34s9.6-7.46,13.87-11.73c5.33-4.27,12.8-13.87,12.8-13.87l33.06-54.4Z" transform="translate(0 -49.45)"/><path class="cls-12" d="M362.67,234.67c-10.67-1.07-20.27-1.07-30.94-1.07L318.93,256s-7.46,9.6-12.8,13.87L304,272a121.16,121.16,0,0,0,39.47-3.2c3.2-1.07,7.46-2.13,10.66,0a11.48,11.48,0,0,1,3.2,7.47c0,3.2,1.07,6.4,1.07,9.6,6.4-6.4,17.07-13.87,17.07-13.87Z" transform="translate(0 -49.45)"/><path class="cls-3" d="M299.73,92.8l-2.13,10.67s-1.07,8.53,0,10.66,6.4,5.34,6.4,7.47-4.27,16-4.27,16-1.06,5.33,6.4,5.33c0,0-2.13,8.54,2.14,7.47a3,3,0,0,0,0,4.27c2.13,2.13,3.2,8.53,3.2,11.73-1.07,3.2,7.46,5.33,14.93,3.2a80.77,80.77,0,0,0,14.93-5.33s12.8,14.93,23.47,18.13l11.73,2.13,27.74-37.33s-11.74-17.07-13.87-29.87C390.4,105.6,312.53,87.47,299.73,92.8Z" transform="translate(0 -49.45)"/><path class="cls-5" d="M342.4,165.33a76.58,76.58,0,0,0,12.8,11.74c6.4-13.87,9.6-35.2,9.6-35.2C356.27,154.67,342.4,165.33,342.4,165.33Z" transform="translate(0 -49.45)"/><path class="cls-10" d="M512,363.73H376.53s8.54-50.13-12.8-90.66c-12.8-27.74-13.86-61.87-10.66-73.6,3.2-12.8,50.13-66.14,50.13-66.14,0,1.07,8.53,5.34,8.53,5.34s8.54-1.07,22.4,7.46,39.47,39.47,43.74,57.6c4.26,17.07,7.46,55.47,9.6,71.47s5.33,23.47,6.4,30.93c0,7.47,0,9.6,3.2,12.8C499.2,321.07,513.07,347.73,512,363.73Z" transform="translate(0 -49.45)"/><path class="cls-11" d="M356.27,250.67s-4.27-40.54,4.26-56.54c8.54-14.93,36.27-51.2,45.87-58.66L395.73,124.8s-8.53,8.53-14.93,16-13.87,17.07-19.2,29.87C355.2,184.53,349.87,192,348.8,208,347.73,222.93,356.27,250.67,356.27,250.67Z" transform="translate(0 -49.45)"/><path class="cls-3" d="M232.53,256s-19.2-5.33-25.6-6.4-8.53-1.07-11.73,1.07c-4.27,2.13-8.53,3.2-21.33,3.2s-18.14-1.07-18.14-1.07-6.4,2.13-8.53,3.2l-3.2,4.27s2.13,6.4-3.2,5.33l-2.13-3.2s-2.14-2.13-1.07-4.27,2.13-7.46,3.2-8.53,8.53-4.27,8.53-4.27l-1.06-1.06a83.21,83.21,0,0,1-9.6,1.06l-1.07,1.07a4,4,0,0,1,2.13,3.2c0,1.07-2.13,5.33-2.13,5.33s-4.27-1.06-5.33-3.2-5.34-25.6-5.34-25.6,4.27-3.2,8.54-3.2c4.26-1.06,9.6-1.06,12.8-2.13s10.66-2.13,14.93-1.07,20.27,5.34,22.4,5.34,37.33,1.06,37.33,1.06Z" transform="translate(0 -49.45)"/><path class="cls-5" d="M126.93,237.87h0a3.92,3.92,0,0,1,3.2-1.07c1.07,0,2.14-1.07,3.2-1.07a8.1,8.1,0,0,0,4.27-1.06c2.13,0,5.33,0,7.47-1.07h2.13c-1.07,0-1.07,0-2.13,1.07a3.92,3.92,0,0,0-3.2,1.06H137.6c-2.13,0-5.33,1.07-7.47,1.07A4.67,4.67,0,0,0,126.93,237.87Z" transform="translate(0 -49.45)"/><path class="cls-5" d="M148.27,224h0c-1.07,0-2.14,1.07-3.2,1.07s-2.14,1.06-3.2,1.06h-8.54a3.92,3.92,0,0,0-3.2,1.07,8.22,8.22,0,0,1-3.2,1.07H128c1.07,0,1.07-1.07,2.13-1.07s2.14-1.07,3.2-1.07h11.74c1.06-1.06,2.13-1.06,3.2-2.13Z" transform="translate(0 -49.45)"/><path class="cls-11" d="M219.73,221.87s12.8,45.86,8.54,50.13c0,0,2.13,1.07,7.46,0s26.67-3.2,33.07-3.2,56.53-4.27,75.73-7.47,60.8-20.26,67.2-23.46c5.34-2.14,33.07-6.4,38.4-21.34,5.34-13.86,3.2-43.73-5.33-57.6S416,135.47,406.4,140.8c-10.67,5.33-26.67,20.27-27.73,44.8,0,0,0,4.27-3.2,6.4s-24.54,10.67-30.94,16-10.66,8.53-13.86,7.47c-4.27-1.07-5.34-2.14-14.94-2.14-10.66,1.07-30.93,4.27-44.8,6.4C254.93,221.87,219.73,221.87,219.73,221.87Z" transform="translate(0 -49.45)"/><path class="cls-6" d="M222.93,315.73,120.53,304,112,323.2C103.47,324.27,218.67,320,222.93,315.73Z" transform="translate(0 -49.45)"/><path id="SVGCleanerId_0" data-name="SVGCleanerId 0" class="cls-11" d="M140.8,323.2l4.27-3.2,77.86-3.2s1.07,6.4-5.33,8.53-73.6,8.54-73.6,8.54Z" transform="translate(0 -49.45)"/><path id="SVGCleanerId_1" data-name="SVGCleanerId 1" class="cls-10" d="M22.4,306.13,144,318.93l-1.07,12.8-115.2-12.8c-1.06,0-2.13-1.06-3.2-2.13Z" transform="translate(0 -49.45)"/><path id="SVGCleanerId_2" data-name="SVGCleanerId 2" class="cls-10" d="M0,199.47s2.13-4.27,9.6-4.27c6.4,0,115.2,8.53,115.2,8.53s4.27,0,5.33,6.4c2.14,8.54,17.07,104.54,17.07,107.74s-3.2,3.2-6.4,4.26-116.27-12.8-116.27-12.8c-2.13-1.06-3.2,0-5.33-7.46C16,289.07,0,199.47,0,199.47Z" transform="translate(0 -49.45)"/><path id="SVGCleanerId_3" data-name="SVGCleanerId 3" class="cls-11" d="M0,200.53s0-4.26,6.4-4.26,114.13,8.53,114.13,8.53,4.27,0,5.34,6.4c2.13,8.53,20.26,103.47,20.26,106.67s-3.2,3.2-6.4,3.2c-3.2,1.06-115.2-12.8-115.2-12.8-2.13-1.07-3.2,0-5.33-7.47C14.93,290.13,0,200.53,0,200.53Z" transform="translate(0 -49.45)"/><path class="cls-13" d="M349.87,130.13h6.4s-1.07-8.53,5.33-13.86c5.33-5.34,10.67-4.27,13.87-1.07,1.06,2.13,5.33,7.47,7.46,10.67,1.07,2.13,4.27,2.13,5.34,1.06l6.4-3.2s-1.07-10.66,0-17.06,1.06-39.47-24.54-52.27c-25.6-13.87-57.6,5.33-67.2,9.6s-13.86,9.6-13.86,22.4c0,8.53,9.6,17.07,10.66,17.07s9.6,3.2,23.47,1.06,19.2-3.2,22.4,5.34C349.87,118.4,349.87,130.13,349.87,130.13Z" transform="translate(0 -49.45)"/><path class="cls-10" d="M222.93,315.73,120.53,304,112,323.2C103.47,324.27,218.67,320,222.93,315.73Z" transform="translate(0 -49.45)"/><path id="SVGCleanerId_0-2" data-name="SVGCleanerId 0" class="cls-11" d="M140.8,323.2l4.27-3.2,77.86-3.2s1.07,6.4-5.33,8.53-73.6,8.54-73.6,8.54Z" transform="translate(0 -49.45)"/><path id="SVGCleanerId_1-2" data-name="SVGCleanerId 1" class="cls-10" d="M22.4,306.13,144,318.93l-1.07,12.8-115.2-12.8c-1.06,0-2.13-1.06-3.2-2.13Z" transform="translate(0 -49.45)"/><path id="SVGCleanerId_2-2" data-name="SVGCleanerId 2" class="cls-10" d="M0,199.47s2.13-4.27,9.6-4.27c6.4,0,115.2,8.53,115.2,8.53s4.27,0,5.33,6.4c2.14,8.54,17.07,104.54,17.07,107.74s-3.2,3.2-6.4,4.26-116.27-12.8-116.27-12.8c-2.13-1.06-3.2,0-5.33-7.46C16,289.07,0,199.47,0,199.47Z" transform="translate(0 -49.45)"/><path id="SVGCleanerId_3-2" data-name="SVGCleanerId 3" class="cls-11" d="M0,200.53s0-4.26,6.4-4.26,114.13,8.53,114.13,8.53,4.27,0,5.34,6.4c2.13,8.53,20.26,103.47,20.26,106.67s-3.2,3.2-6.4,3.2c-3.2,1.06-115.2-12.8-115.2-12.8-2.13-1.07-3.2,0-5.33-7.47C14.93,290.13,0,200.53,0,200.53Z" transform="translate(0 -49.45)"/><ellipse class="cls-3" cx="367.05" cy="121.57" rx="12.8" ry="7.47" transform="translate(157.04 396.78) rotate(-75.43)"/><path class="cls-3" d="M280.53,313.6h0c-5.33,2.13-10.66,5.33-11.73,5.33-2.13,1.07-1.07,1.07-5.33,3.2-3.2,2.14-13.87,0-13.87,0-1.07,1.07-7.47,0-8.53-1.06-1.07,0-2.14-1.07-3.2-2.14s-6.4-7.46-6.4-9.6,1.06-5.33,1.06-7.46v-5.34c0-1.06,3.2-3.2,3.2-4.26s-1.06-3.2,0-5.34a5.73,5.73,0,0,1,4.27-3.2,3.7,3.7,0,0,0,2.13-1.06c0-1.07,0-1.07,1.07-3.2s6.4-2.14,9.6,0a94.09,94.09,0,0,0,10.67,5.33h2.13a8.06,8.06,0,0,1,4.27,1.07c3.2,1.06,3.2,3.2,4.26,7.46,0,4.27,2.14,5.34,2.14,5.34h0a3.7,3.7,0,0,0,2.13,1.06h0q3.19,1.61,3.2,3.2C282.67,309.33,281.6,311.47,280.53,313.6Z" transform="translate(0 -49.45)"/><path class="cls-5" d="M261.33,288h-4.26c-2.14,0-2.14,3.2-2.14,4.27,0,2.13,2.14,4.26,4.27,5.33,1.07,1.07,2.13,1.07,5.33,2.13l3.2,1.07c-2.13,0-4.26-1.07-7.46-2.13a18.43,18.43,0,0,1-4.27-3.2c-2.13-2.14-2.13-3.2-2.13-5.34s0-2.13-1.07-4.26,0-2.14,1.07-1.07,1.06,1.07,1.06,2.13v-3.2a8,8,0,0,1,3.2,3.2C257.07,288,260.27,286.93,261.33,288Z" transform="translate(0 -49.45)"/><path class="cls-5" d="M260.27,298.67a8.28,8.28,0,0,1,4.26,4.26,5,5,0,0,1-1.06,6.4v-1.06a4.69,4.69,0,0,1-1.07,5.33,8.06,8.06,0,0,1-4.27,2.13h0c-1.06,3.2-3.2,4.27-6.4,4.27h0c0,1.07-1.06,2.13-2.13,3.2,1.07-1.07,2.13-2.13,2.13-3.2h0c2.14,0,5.34-2.13,5.34-4.27h0a8,8,0,0,0,4.26-2.13c1.07-1.07,1.07-3.2,1.07-4.27h0c1.07-1.06,1.07-3.2,1.07-5.33S261.33,299.73,260.27,298.67Z" transform="translate(0 -49.45)"/><path class="cls-5" d="M263.47,308.27a3,3,0,0,1-4.27,0,16.59,16.59,0,0,1-8.53-6.4c-1.07-1.07-2.14-3.2-3.2-4.27s-2.14-3.2-3.2-4.27a7.35,7.35,0,0,1,0-5.33,10.72,10.72,0,0,0,1.06,4.27c0,1.06,2.14,2.13,3.2,4.26,1.07,1.07,2.14,3.2,3.2,4.27a16.65,16.65,0,0,0,8.54,6.4C261.33,310.4,263.47,309.33,263.47,308.27Z" transform="translate(0 -49.45)"/><path class="cls-5" d="M258.13,314.67h-4.26a32.16,32.16,0,0,1-7.47-5.34c-1.07-1.06-3.2-2.13-3.2-3.2a8,8,0,0,1-2.13-4.26l-2.14-4.27a13.29,13.29,0,0,1,2.14,3.2c1.06,1.07,1.06,2.13,2.13,4.27l3.2,3.2c3.2,2.13,5.33,4.26,7.47,5.33C257.07,315.73,258.13,314.67,258.13,314.67Z" transform="translate(0 -49.45)"/><path class="cls-5" d="M252.8,318.93h-3.2c-2.13,0-4.27,0-6.4-2.13a22.47,22.47,0,0,1-4.27-6.4,8.28,8.28,0,0,1-1.06-3.2l2.13,2.13c1.07,1.07,2.13,4.27,4.27,5.34,2.13,2.13,4.26,2.13,6.4,2.13C251.73,318.93,252.8,318.93,252.8,318.93Z" transform="translate(0 -49.45)"/><path class="cls-3" d="M222.93,308.27c-7.46,7.46-18.13,8.53-23.46,6.4-5.34-3.2-5.34-12.8-5.34-12.8a41.51,41.51,0,0,1-4.26,5.33c-2.14,2.13-5.34,0-5.34,0l3.2-6.4a5.55,5.55,0,0,1,2.14-4.27v-1.06h-6.4L176,302.93c-1.07,1.07-4.27,7.47-7.47,5.34s0-6.4,0-7.47l1.07-3.2s-5.33,7.47-7.47,9.6c-1.06,2.13-4.26,5.33-7.46,3.2-2.14-2.13,0-6.4,0-6.4s-3.2,5.33-5.34,2.13,1.07-8.53,2.14-9.6,6.4-8.53,7.46-9.6,1.07-2.13,3.2-2.13a59.85,59.85,0,0,1,7.47,1.07h2.13a37.8,37.8,0,0,1,6.4,1.06,4,4,0,0,1,3.2-2.13c2.14,0,4.27,3.2,5.34,5.33a1,1,0,0,0,1.06,1.07,42.32,42.32,0,0,0,4.27,3.2c1.07-2.13,2.13-3.2,4.27-3.2s3.2,3.2,3.2,3.2c3.2,0,7.46,1.07,12.8,4.27A19,19,0,0,1,222.93,308.27Z" transform="translate(0 -49.45)"/><rect class="cls-2" x="16" y="298.29" width="496" height="114.13"/><polygon class="cls-1" points="357.33 258.82 357.33 298.29 512 298.29 512 259.89 357.33 258.82"/><rect class="cls-2" x="326.4" y="298.29" width="185.6" height="114.13"/></svg>