<svg version="1.1" id="Capa_1" xmlns="http://www.w3.org/2000/svg" xmlns:xlink="http://www.w3.org/1999/xlink" x="0px" y="0px"
	 viewBox="0 0 511.999 511.999" style="enable-background:new 0 0 511.999 511.999;" xml:space="preserve">
<g>
	<path style="fill:#F5775A;" d="M88.909,111.819c-2.644,2.421-2.218,8.19-2,11.12c0.456,6.114-0.582,11.054-1.363,17.443
		c-0.983,8.042,0.974,19.589-2.477,26.967c-2.467,5.277-5.451,4.143-10.171,3.663c-6.442-0.655-12.723-0.221-19.124-1.765
		c-8.303-2.003-16.852-9.363-22.791-1.158c-6.801,9.396-15.502,19.483-20.482,29.973c-2.474,5.212-1.544,8.537,2.134,12.744
		c6.42,7.342,15.216,13.809,22.844,19.953c9.078,7.313,19.689,13.331,26.842,22.658c9.525,12.419,9.144,26.068,10.727,41.02
		c2.661,25.147-0.158,50.874,3.174,75.855c2.155,16.156,4.958,39.382,17.18,51.313c8.433,8.232,23.185,12.229,34.634,11.872
		c6.951-0.216,12.529,1.282,19.325,2.417c8.581,1.433,17.576,0.909,26.258,1.879c25.703,2.872,53.911,7.275,79.409,2.094
		c10.677-2.17,19.998-8.684,26.678-17.081c5.633-7.08,6.172-13.225,8.634-21.726c4.396-15.179,11.728-29.062,15.085-44.756
		c3.828-17.9,4.861-36.509,5.517-54.773c1.302-36.276-2.818-72.682-1.077-108.887c0.81-16.839,1.24-34.551,0.013-51.417
		c-0.836-11.49-1.065-24.183-4.438-35.295c-3.277-10.794-10.608-4.338-17.478,0.604c-10.125,7.284-18.654,13.687-31.237,16.424
		c-10.335,2.248-21.751,3.469-32.345,3.348c-8.761-0.1-17.052-1.888-23.477,5.917c-6.249,7.591-8.818,26.591-18.863,30.519
		c-8.825,3.451-8.413-15.463-8.938-21.135c-0.731-7.908-2.476-16.878-11.717-17.836c-4.45-0.462-10.077,1.002-14.681,0.995
		c-7.888-0.012-15.605,0.422-23.417-0.964c-7.539-1.337-14.27-5.432-21.228-8.801c-1.966-0.952-7.666-4.803-9.821-4
		C89.727,111.195,89.287,111.473,88.909,111.819z"/>
	<path style="fill:#F5775A;" d="M401.471,339.58c3.261,13.544,10.94,28.238,19.673,38.841c-8.006-3.438-16.701-4.246-25.165-6.162
		c-15.39-3.484-30.352-8.191-45.906-11.215c-11.827-2.299-22.991-6.481-34.536-9.836c-2.263-0.658-7.128-0.747-8.859-2.126
		c-3.642-2.9-1.019-9.15-1.33-13.38c-0.307-4.175-4.216-23.36,0.386-26.659c2.599-1.864,11.774,2.974,14.991,3.891
		c15.04,4.287,28.712,12.823,43.485,18.082c7.861,2.798,16.326,5.538,24.367,7.706C392.712,339.834,397.378,339.541,401.471,339.58z
		"/>
</g>
<g>
	<path style="fill:#FEBE7F;" d="M311.503,219.286c-3.221,16.567-1.82,34.739-1.023,51.681c0.344,7.303,0.73,14.624,0.535,21.937
		c-0.128,4.778-2.302,12.69,1.957,16.348c3.935,3.381,12.86,3.809,17.729,5.702c18.149,7.055,34.034,16.271,53.26,20.076
		c9.301,1.841,12.859,0.883,16.792,9.918c3.063,7.034,8.859,11.381,13.02,17.526c3.622,5.35,6.426,9.714,12.119,13.438
		c10.736,7.023,22.185,4.996,33.596,0.731c24.344-9.1,39.823-28.987,40.429-55.029c0.291-12.502-9.703-17.235-20.468-20.458
		c-3.266-0.978-11.058-1.297-13.096-4.501c-2.65-4.167,7.391-9.096,10.191-11.356c8.692-7.015,17.763-11.848,23.434-22.076
		c5.109-9.213,8.752-27.948-5.361-29.26c-14.916-1.387-29.856-1.33-44.809-2.686c-16.508-1.496-33.02-3.086-49.517-4.789
		c-17.778-1.835-35.687-2.425-53.524-3.047c-5.787-0.202-11.529-0.609-17.294-1.013
		C324.558,222.084,317.136,223.175,311.503,219.286z"/>
	<path style="fill:#FEBE7F;" d="M169.981,73.72c-22.029-0.112-48.613-0.497-67.448,12.863c-4.779,3.39-13.586,11.025-12.409,17.969
		c0.612,3.61,3.704,5.09,6.557,7.076c9.607,6.688,19.176,9.451,30.843,11.245c10.951,1.685,21.792,4.692,32.753,5.46
		c4.68,0.328,5.659-0.432,7.819,4.412c2.272,5.095,2.706,11.33,3.781,16.787c0.685,3.478,0.665,9.654,3.678,12.031
		c3.445,2.718,7.362,0.526,9.477-2.314c7.12-9.566,6.091-25.245,19.047-30.442c8.298-3.329,19.165-2.437,27.978-3.394
		c12.51-1.359,25.502-2.824,37.027-7.945c10.855-4.823,43.554-24.474,23.341-38.44c-13.851-9.57-35.978-9.84-51.916-9.857
		c-12.439-0.013-24.683,1.459-37.059,2.531C192.835,72.623,182.481,72.11,169.981,73.72z"/>
</g>
<path d="M510.971,231.931c-4.695-8.189-22.309-5.274-29.631-5.287c-27.931-0.049-55.677-3.987-83.581-4.827
	c-27.106-0.816-55.091-6.696-82.268-5.612c0.507-6.722,1.011-13.442,1.107-20.162c0.192-13.439-0.656-26.773-0.978-40.169
	c-0.333-13.835-0.459-28.356-2.955-42.007c-1.921-10.505-3.098-23.759-10.836-31.929c-7.622-8.047-18.196-13.189-29.017-14.609
	c-25.002-3.28-50.691-5.738-76.041-3.096c-12.379,1.29-24.753,1.972-37.174,3.123c-4.947,0.458-9.77,1.345-14.538,2.439
	c-1.201,0.134-2.406,0.252-3.605,0.394c-17.958,2.144-40.732,6.146-52.048,21.981c-11.922,16.685-12.264,43.639-10.519,63.041
	c0.328,3.651,2.227,8.778-0.849,10.763c-3.589,2.316-16.124-2.862-19.867-4.243c-9.024-3.328-18.353-9.295-27.747-3.774
	c-8.057,4.735-13.382,15.586-18.044,23.241c-4.832,7.935-13.534,18.405-12.253,28.306c1.047,8.095,8.505,11.642,14.828,15.461
	c10.245,6.188,22.115,10.643,31.179,18.551c8.703,7.593,14.177,13.528,17.251,24.977c3.639,13.553,5.522,28.252,5.792,42.304
	c0.491,25.551-0.242,51.173,1.484,76.714c0.628,9.294,1.601,19.6,6.948,27.534c5.271,7.822,14.141,12.936,22.578,16.571
	c20.698,8.919,42.854,12.613,65.236,14.46c25.66,2.118,52.3,4.106,78.024,1.724c22.892-2.12,40.493-10.094,51.015-31.591
	c8.988-18.36,11.845-39.057,14.243-59.256c26.967,8.835,54.743,13.946,82.342,20.809c7.785,1.936,15.595,3.315,23.429,4.978
	c6.69,1.42,12.785,4.096,19.691,4.064c14.405-0.066,29.84-5.153,42.331-12.275c12.047-6.869,19.216-16.324,24.822-28.768
	c4.717-10.471,10.064-28.247,4.09-39.136c-4.786-8.723-17.878-8.644-27.483-10.338c-1.505-0.461-3.05-0.822-4.606-1.155
	c3.619-2.02,6.97-4.189,9.726-5.947c10.316-6.583,20.898-15.514,25.202-27.338c1.973-5.421,1.547-11.037,2.376-16.676
	C511.219,241.13,513.187,235.795,510.971,231.931z M104.041,96.378c7.842-6.891,19.576-9.529,29.565-11.316
	c25.429-4.551,52.175-4.905,77.931-5.185c11.336-0.123,22.544,0.144,33.866,0.267c16.678,0.182,37.075-1.092,46.708,12.943
	c-9.003,22.38-48.013,25.349-68.03,26.77c-8.172,0.58-20.109,0.394-27.074,5.422c-8.025,5.794-10.27,19.603-14.818,28.035
	c-0.613,1.135-1.686,4.809-1.998,5.107c0.463,2.53,0.066,1.842-1.189-2.065c-0.412-1.154-0.825-2.308-1.237-3.462
	c-1.828-6.777-1.337-13.916-2.572-20.785c-1.585-8.809-4.866-11.171-13.404-12.186c-11.409-1.356-23.218,0.553-34.501-1.628
	c-5.955-1.151-12.15-2.535-17.832-4.658c-1.848-0.69-8.297-4.875-12.255-6.974C98.76,102.707,100.917,99.123,104.041,96.378z
	 M163.838,133.178c1.645,2.502,0.85,8.794,1.157,11.797c0.105,1.03,0.211,2.07,0.323,3.11c-3.666,18.225-9.41,39.845,3.236,55.658
	c8.75,10.94,24.667,19.774,38.703,13.888c14.139-5.929,19.75-29.934,21.366-43.308c1.266-10.477,0.289-20.908-2.232-31.131
	c-0.969-3.93-1.924-8.811-4.513-12.178c0.741-0.056,1.478-0.113,2.205-0.178c2.922-0.264,5.842-0.582,8.761-0.899
	c0.387,1.199,1.342,2.172,2.611,2.173c4.874,9.371,5.178,21.856,6.126,31.977c1.283,13.707,1.223,27.143-1.208,40.749
	c-2.155,12.061-4.924,24.093-11.242,34.719c-3.211,5.401-6.984,11.818-12.676,14.966c-8.118,4.491-15.06-0.617-21.088-5.813
	c-16.294-14.045-40.6-26.414-49.315-46.947c-9.876-23.267-4.427-48.938,4.205-71.767c3.534-0.004,7.345,0.102,10.535,1.397
	C164.53,132.91,161.354,129.4,163.838,133.178z M186.843,185.642c3.682,4.877,7.688,6.819,12.752,2.729
	c14.023-11.33,12.054-38.063,4.883-52.864c2.579-2.074,5.791-3.102,9.234-3.668c-0.073,0.954,0.234,1.929,1.118,2.716
	c2.776,2.469,3.756,8.696,4.618,12.199c1.777,7.223,2.792,14.628,2.482,22.075c-0.332,8-1.894,16.094-4.634,23.625
	c-1.978,5.438-5.721,14.964-10.71,18.377c-13.822,9.452-33.841-7.042-38.314-19.614c-3.631-10.202-2.039-21.714-0.902-32.793
	c2.259,7.148,6.436,14.824,14.391,11.828C182.165,175.759,183.423,181.113,186.843,185.642z M184.966,168.554
	c8.044-5.469,10.811-17.53,14.8-26.302c2.854,9.63,4.841,20.607,2.446,30.008c-1.722,6.759-8.178,17.144-13.993,7.054
	C186.37,176.105,185.439,172.367,184.966,168.554z M79.91,264.38c-0.139,2.886-0.741,5.67-1.471,8.428
	c-1.396-5.892-3.2-11.599-5.525-16.96c-6.172-14.228-20.457-23.866-33.585-31.069c-2.385-1.309-4.753-2.664-7.132-3.998
	c15.914-0.673,38.167,8.618,43.828,21.284C79.212,249.199,80.282,256.65,79.91,264.38z M101.608,416.921
	c-11.884-6.188-15.696-14.561-16.899-27.523c-1.046-11.275-0.293-22.63-0.993-33.922c-0.7-11.29-1.34-22.175-1.09-33.508
	c0.031-1.411,0.052-2.838,0.065-4.275c3.588,3.766,7.36,7.409,10.295,11.918c6.817,10.472,12.437,21.093,16.567,32.918
	c3.821,10.941,4.658,21.336,2.236,32.698c-1.703,7.993-5.196,15.215-8.263,22.648C102.884,417.559,102.237,417.249,101.608,416.921z
	 M130.145,426.721c-6.642-1.138-13.36-3.152-19.753-5.757c4.467-9.145,8.039-19.39,9.232-29.354
	c1.487-12.415-0.121-22.149-4.497-33.965c-4.539-12.257-10.945-23.65-18.898-34.046c-3.341-4.367-8.099-9.791-13.564-12.644
	c-0.133-8.743-0.714-17.776-2.031-26.623c3.66-7.569,7.072-14.969,6.427-23.735c-0.7-9.511-2.692-19.27-8.78-27.07
	c-6.079-7.789-17.456-11.551-26.709-13.669c-8.542-1.955-15.772-3.747-23.721-1.513c-0.746-0.425-1.503-0.832-2.246-1.259
	c-2.924-1.679-9.351-4.211-11.464-7.089c-2.726-3.712,1.502-11.611,6.216-18.589c3.957,4.804,9.8,7.291,16.296,9.519
	c7.762,2.663,16.001,3.277,23.884,5.464c6.652,1.845,13.434,4.859,19.744,7.75c13.519,6.196,25.919,17.297,26.964,33.012
	c0.952,14.303-5.861,27.998-0.974,42.019c4.098,11.758,12.165,20.853,20.332,29.972c11.531,12.874,20.275,26.556,20.296,44.468
	c0.02,16.502-8.772,29.95-11.499,45.681c-1.048,6.046-1.772,12.95,0.668,18.36C134.094,427.336,132.119,427.059,130.145,426.721z
	 M146.425,429.28c-0.123-0.663-0.459-1.303-1.072-1.845c-10.214-9.028,4.289-34.988,6.852-45.32
	c2.976-11.997,3.356-24.278-0.168-36.206c-3.561-12.053-10.813-21.643-19.145-30.806c-9.971-10.967-22.159-23.295-21.573-39.232
	c0.479-13.004,5.073-25.89,0.691-38.727c-3.285-9.626-10.54-17.338-18.88-22.895c-9.066-6.042-20.579-10.621-31.096-13.298
	c-11.45-2.915-30.884-2.566-39.806-12.239c2.646-3.717,5.178-6.94,6.464-8.767c3.42-4.856,6.026-10.92,12.565-10.018
	c4.661,0.643,10.285,4.59,14.75,6.268c8.848,3.326,19.43,6.34,28.696,2.895c7.393-2.749,10.295-9.309,9.547-16.852
	c-1.174-11.82-3.32-22.719-1.547-34.779c0.537-3.656,1.073-7.666,1.891-11.65c3.949,3.158,8.876,5.545,12.319,7.046
	c6.809,2.968,13.325,4.744,19.955,5.787c-4.745,6.142-7.291,16.298-8.86,22.519c-3.245,12.859-3.785,26.4-1.861,39.5
	c2.265,15.424,7.493,30.545,13.558,44.858c5.797,13.681,11.867,28.703,20.536,40.82c8.675,12.124,17.945,25.402,23.403,39.33
	c6.27,16.003,4.678,31.981,0.222,48.392c-5.138,18.926-22.691,46.256-15.207,66.846C154.579,430.405,150.5,429.864,146.425,429.28z
	 M229.822,434.175c-11.569-0.006-23.335,0.813-34.881,0.086c-0.627-0.04-1.246-0.102-1.872-0.143
	c-0.714-2.97-0.959-7.127-1.131-8.59c-0.991-8.412-1.408-19.163,0.547-27.43c3.724-15.746,11.74-30.756,16.526-46.268
	c4.271-13.843,5.47-25.373,2.55-39.686c-2.37-11.617-9.943-25.312-19.227-32.778c-1.269-1.02-3.669,0.352-2.493,1.924
	c10.494,14.032,17.269,29.134,17.342,46.964c0.075,18.386-10.89,37.194-16.803,54.147c-5.132,14.711-7.291,28.726-4.283,44.297
	c0.334,1.731,0.734,4.413,1.471,7c-8.043-0.609-16.057-1.33-24.036-2.243c-3.434-12.742,2.813-26.38,7.055-38.275
	c4.474-12.546,10.199-24.492,12.609-37.68c2.097-11.476,3.701-23.214,0.354-34.586c-3.516-11.946-9.776-22.441-16.291-32.948
	c-6.877-11.09-14.435-21.202-20.016-33.048c-6.519-13.837-13.021-27.507-17.753-42.092c-4.637-14.29-7.598-28.966-6.526-44.052
	c0.531-7.465,1.955-14.853,4.331-21.95c1.556-4.648,3.761-13.298,7.697-16.564c0.247-0.205,0.432-0.43,0.59-0.663
	c3.564,0.254,7.223,0.359,11.005,0.381c-10.738,24.143-16.981,52.789-4.309,77.453c6.732,13.102,18.771,21.188,29.993,30.011
	c9.364,7.362,19.723,19.755,31.185,23.858c25.675,9.191,38.368-31.977,42.126-49.493c3.564-16.611,4.083-32.738,2.481-49.631
	c-0.984-10.373-1.321-23.705-6.784-33.21c1.967-0.238,3.936-0.464,5.902-0.713c3.556-0.451,7.176-1.018,10.792-1.739
	c2.477,11.203,9.166,21.9,12.27,32.978c4.005,14.299,4.649,29.622,2.893,44.332c-3.683,30.856-18.179,59.127-31.411,86.76
	c-11.48,23.976-18.621,50.513-19.215,77.158c-0.302,13.526,0.751,27.338,3.494,40.604c1.651,7.987,4.122,17.782,8.186,25.822
	C232.711,434.177,231.252,434.176,229.822,434.175z M297.961,305.18c-0.383,21.954-1.402,44.569-5.244,66.212
	c-2.351,13.238-5.097,29.523-12.419,42.057c-2.083-4.646-3.122-9.466-4.206-14.525c-2.931-13.676-2.716-26.049-0.271-39.803
	c3.295-18.542,11.441-39.811,22.213-57.026C298.011,303.122,297.978,304.151,297.961,305.18z M298.23,294.1
	c-13.892,17.323-24.374,40.915-28.563,61.735c-2.291,11.382-4.19,23.227-2.559,34.832c0.937,6.668,2.19,13.857,4.171,20.285
	c0.931,3.021,2.921,5.997,4.487,8.968c-3.057,3.645-6.678,6.763-11.094,9.031c-1.692,0.869-3.465,1.586-5.289,2.19
	c-0.204-0.311-0.508-0.582-0.982-0.733c-0.784-0.249-3.307-13.529-3.64-14.876c-2.21-8.944-3.388-18.403-4.537-27.524
	c-2.216-17.604-3.059-35.58,1.637-52.875c4.189-15.428,11.738-31.867,20.869-45.066c7.169-10.363,16.879-17.194,26.644-24.341
	C298.919,275.182,298.511,284.639,298.23,294.1z M299.824,256.507c-12.919,9.92-25.91,18.067-34.871,32.422
	c-10.307,16.511-19.316,35.985-22.252,55.317c-2.924,19.251-0.453,38.587,2.834,57.62c1.455,8.421,3.867,16.354,6.445,24.473
	c0.684,2.152,1.263,4.555,2.745,6.071c-3.766,0.832-7.681,1.28-11.592,1.511c-12.923-23.84-15.009-54.315-12.14-80.659
	c3.316-30.45,16.649-56.193,28.745-83.749c10.182-23.198,19.414-47.223,20.57-72.812c0.584-12.929-0.935-26.291-4.886-38.636
	c-3.537-11.053-10.993-21.194-14.387-32.223c3.896-0.881,7.757-1.976,11.507-3.32c2.283,5.058,6.034,9.264,8.404,14.304
	c4.416,9.387,7.938,20.088,11.156,29.941c2.949,9.03,6.392,17.879,8.469,27.168c0.479,2.14,1.082,4.262,1.739,6.377
	C301.802,219.051,300.774,237.777,299.824,256.507z M298.728,164.94c-4.981-15.462-10.152-32.242-21.255-44.376
	c3.527-1.549,6.911-3.364,10.057-5.531c3.277-2.258,6.772-4.964,9.688-8.08c4.496,21.098,5.188,43.697,5.393,65.118
	c0.019,1.981,0.008,3.961,0.009,5.941C301.42,173.655,300.136,169.312,298.728,164.94z M314.346,236.985
	c0.056-4.155,0.276-8.309,0.55-12.461c29.526,7.615,61.551,7.307,91.707,10.375c16.143,1.643,32.943,3.174,49.157,3.354
	c8.56,0.095,17.007,1.003,25.581,1.06c2.668,0.018,6.724-0.487,10.704-0.57c-2.204,1.015-4.348,2.161-6.377,3.141
	c-8.898,4.295-17.906,8.509-26.72,12.976c-14.903,7.553-28.572,17.383-43.891,24.23c-0.52,0.232-0.928,0.545-1.278,0.892
	c-16.459-4.177-33.334-7.349-49.939-10.533c-8.334-1.599-16.57-3.564-24.778-5.656c-4.279-1.429-8.531-2.971-12.887-4.101
	c-3.988-1.035-8.077-2.58-12.189-2.973C314.168,250.134,314.257,243.543,314.346,236.985z M401.041,367.482
	c-17.132-4.13-34.656-6.984-51.662-11.489c-12.268-3.25-26.04-10.341-39.24-11.861c1.119-11.068,1.537-22.217,1.828-33.375
	c11.379,7.034,23.668,12.214,36.174,17.481c15.701,6.612,31.058,13.166,48.185,14.716c0.815,0.074,1.614,0.114,2.415,0.16
	c0.913,10.594,8.12,20.492,15.587,27.432C409.89,369.551,405.453,368.546,401.041,367.482z M494.784,326.155
	c-0.827,4.652-2.015,9.174-3.866,13.528c-7.305,17.181-19.574,25.567-37.05,31.125c-6.287,1.999-12.434,3.523-18.725,3.513
	c-12.817-7.319-23.67-17.358-29.138-31.145c14.876-0.623,27.748-5.653,42.506-10.522c8.107-2.675,16.247-5.39,24.384-7.967
	c7.393-2.342,15.218-5.831,22.827-7.157C495.66,320.43,495.349,323.306,494.784,326.155z M485.956,309.373
	c-4.243,1.234-8.415,3.024-12.543,4.263c-7.076,2.124-13.908,4.872-20.983,6.997c-16.71,5.018-32.523,13.474-50.472,12.453
	c-17.333-0.987-32.216-6.379-48.269-12.349c-13.648-5.075-28.235-9.118-41.59-15.1c0.265-11.201,0.482-22.4,1.217-33.526
	c0.169-2.562,0.295-5.131,0.407-7.703c0.476,0.203,0.966,0.379,1.446,0.573c25.693,12.675,53.966,16.198,81.758,22.973
	c15.507,3.78,30.861,7.168,46.217,11.527c6.154,1.747,12.281,3.162,18.515,4.39c2.067,0.587,4.146,1.147,6.202,1.756
	C473.429,307.277,480.151,307.811,485.956,309.373z M497.157,250.749c-0.814,9.318-5.104,15.358-12.198,21.533
	c-8.566,7.456-19.577,13.198-30.14,18.129c-6.4-1.553-12.814-3.053-19.206-4.645c-2.239-0.622-4.488-1.187-6.732-1.779
	c11.028-5.691,21.267-13.116,31.773-19.548c12.991-7.954,26.335-14.349,38.069-23.913
	C498.247,243.963,497.444,247.475,497.157,250.749z"/>
<g>
</g>
</svg>
