<svg id="Capa_1" data-name="Capa 1" xmlns="http://www.w3.org/2000/svg" viewBox="0 0 512 512"><defs><style>.cls-1{fill:#f3f3f3;}.cls-2{fill:#e8eae9;}.cls-3{fill:#ce2929;}.cls-4{fill:#415a6b;}.cls-5{fill:#4a8c9e;}.cls-6{fill:#8ad7f8;}.cls-7{fill:#40b3db;}.cls-8{fill:#6e9137;opacity:0.5;}</style></defs><title>mold</title><rect class="cls-1" x="59.73" y="199.47" width="392.53" height="262.4"/><rect class="cls-2" x="59.73" y="199.47" width="392.53" height="14.93"/><polygon class="cls-3" points="512 199.47 0 199.47 256 0 512 199.47"/><rect class="cls-4" x="102.4" y="263" width="110.93" height="198.87"/><rect class="cls-5" y="461.87" width="512" height="50.13"/><rect class="cls-4" x="282.15" y="262.67" width="48.86" height="106.51"/><rect class="cls-6" x="288.47" y="271.19" width="36.23" height="89.48"/><rect class="cls-4" x="341.15" y="262.67" width="48.86" height="106.51"/><rect class="cls-6" x="347.47" y="271.19" width="36.23" height="89.48"/><path class="cls-7" d="M0,440"/><polygon class="cls-3" points="160.91 341.85 163.47 311.81 163.47 297.43 147.49 297.43 147.49 311.81 150.05 341.85 160.91 341.85"/><circle class="cls-3" cx="155.48" cy="355.92" r="7.99"/><path class="cls-8" d="M452.27,483.76c-28,0-28-28.1-56.08-28.1s-28,28.1-56.08,28.1-28-28.1-56.08-28.1-28,28.1-56.07,28.1-28-28.1-56.08-28.1-28,28.1-56.07,28.1-28-28.1-56.08-28.1V384.8c28,0,28,28.09,56.08,28.09s28-28.09,56.07-28.09,28,28.09,56.08,28.09S256,384.8,284,384.8s28,28.09,56.08,28.09,28-28.09,56.08-28.09,28,28.09,56.08,28.09"/><path class="cls-7" d="M512,510.66c-36.57,0-36.57-30.85-73.15-30.85s-36.57,30.85-73.14,30.85-36.58-30.85-73.15-30.85S256,510.66,219.42,510.66s-36.57-30.85-73.14-30.85-36.57,30.85-73.14,30.85S36.57,479.81,0,479.81V402c36.57,0,36.57,30.85,73.14,30.85S109.71,402,146.28,402s36.57,30.85,73.14,30.85S256,402,292.56,402s36.57,30.85,73.15,30.85S402.28,402,438.85,402s36.58,30.85,73.15,30.85"/></svg>