<svg id="Capa_1" data-name="Capa 1" xmlns="http://www.w3.org/2000/svg" viewBox="0 0 385.44 512"><defs><style>.cls-1{fill:#b1e8ff;}.cls-2{fill:#d7f7ff;}.cls-3{fill:#bfc1c0;}.cls-4{fill:#ce2929;}.cls-5{fill:#231f20;opacity:0.1;isolation:isolate;}.cls-6{fill:#e6e9ed;}.cls-7{fill:#415a6b;}.cls-8{fill:#ededed;}.cls-9{fill:#63c3ea;}</style></defs><title>Mop</title><path class="cls-1" d="M265.93,319.74a22.07,22.07,0,0,0-30.82-30.07,27.12,27.12,0,0,0-32.4-26.38,22.72,22.72,0,0,0-42.49,3.48,23.35,23.35,0,0,0-31.81,13.82,39.13,39.13,0,0,0-35.93,39v.16Z" transform="translate(-63.28)"/><circle class="cls-1" cx="195.97" cy="236.31" r="14.9"/><circle class="cls-2" cx="171.56" cy="216.95" r="19.36"/><path class="cls-3" d="M87.77,333.79,98.62,505.13a7.45,7.45,0,0,0,7.32,6.87h149.8a7.46,7.46,0,0,0,7.33-6.87l10.84-171.34Z" transform="translate(-63.28)"/><path class="cls-4" d="M97.57,488.59l1.05,16.54a7.45,7.45,0,0,0,7.32,6.87h149.8a7.46,7.46,0,0,0,7.33-6.87l1-16.54Z" transform="translate(-63.28)"/><path class="cls-5" d="M121.06,505.13,110.22,333.79H87.77L98.62,505.13a7.45,7.45,0,0,0,7.32,6.87h22.44A7.45,7.45,0,0,1,121.06,505.13Z" transform="translate(-63.28)"/><rect class="cls-6" x="255.92" y="94" width="31.93" height="277.64"/><path class="cls-7" d="M221.62,506.85a5.17,5.17,0,0,0,5.15,5.15h216.8a5.17,5.17,0,0,0,5.15-5.15V457H221.62Z" transform="translate(-63.28)"/><path class="cls-5" d="M242.9,506.85V457H221.62v49.85a5.17,5.17,0,0,0,5.15,5.15h21.29A5.17,5.17,0,0,1,242.9,506.85Z" transform="translate(-63.28)"/><path class="cls-4" d="M448.72,460V440.51a5.17,5.17,0,0,0-5.15-5.15H362.28a5.16,5.16,0,0,1-5.15-5.15V370.26a5.17,5.17,0,0,0-5.15-5.15H318.37a5.17,5.17,0,0,0-5.15,5.15v59.95a5.17,5.17,0,0,1-5.15,5.15H226.78a5.16,5.16,0,0,0-5.15,5.15V460Z" transform="translate(-63.28)"/><path class="cls-7" d="M278.5,333.79v58.54a12,12,0,0,1-12,12H227v15h39.52a27,27,0,0,0,27-27V333.79Z" transform="translate(-63.28)"/><path class="cls-7" d="M146,404.31H95.16a12,12,0,0,1-12-12V333.79h-15v58.54a27,27,0,0,0,27,27H146Z" transform="translate(-63.28)"/><path class="cls-4" d="M232.8,414.85a11.56,11.56,0,0,1-11.52,11.52h-71a11.55,11.55,0,0,1-11.51-11.52v-4.33A11.55,11.55,0,0,1,150.31,399h71a11.55,11.55,0,0,1,11.52,11.52v4.33Z" transform="translate(-63.28)"/><path class="cls-8" d="M298.4,326.51a10.33,10.33,0,0,1-10.3,10.3H73.58a10.34,10.34,0,0,1-10.3-10.3v-2.19A10.33,10.33,0,0,1,73.58,314H288.1a10.32,10.32,0,0,1,10.3,10.3v2.19Z" transform="translate(-63.28)"/><path class="cls-5" d="M91.17,326.51v-2.19a10.33,10.33,0,0,1,10.3-10.3H73.58a10.33,10.33,0,0,0-10.3,10.3v2.19a10.34,10.34,0,0,0,10.3,10.3h27.89A10.34,10.34,0,0,1,91.17,326.51Z" transform="translate(-63.28)"/><path class="cls-4" d="M340.49,0H329.85a10.67,10.67,0,0,0-10.64,10.65V96.86h31.93V10.65A10.68,10.68,0,0,0,340.49,0Z" transform="translate(-63.28)"/><circle class="cls-9" cx="182.56" cy="211.93" r="3.27"/><circle class="cls-2" cx="202.89" cy="231.83" r="2.83"/><circle class="cls-2" cx="205.92" cy="237.8" r="0.86"/><circle class="cls-2" cx="166.63" cy="292.9" r="4.56"/><circle class="cls-2" cx="151.43" cy="280.61" r="12.29"/></svg>