<svg id="Capa_1" data-name="Capa 1" xmlns="http://www.w3.org/2000/svg" viewBox="0 0 512 325.46"><defs><style>.cls-1{fill:#2d5871;}.cls-2{fill:#bfc1c0;}.cls-3{fill:#adadad;}.cls-4{fill:#21d8de;}.cls-5{fill:#1d4859;}.cls-6{fill:#e1effb;}.cls-7{fill:#ce2929;}.cls-8{fill:#a02222;}.cls-9{fill:#fff;}</style></defs><title>moving</title><path class="cls-1" d="M490.4,382.64H27.31A3.63,3.63,0,0,1,23.69,379V339.93H512V361A21.61,21.61,0,0,1,490.4,382.64Z" transform="translate(0 -93.27)"/><path class="cls-2" d="M512,358.18H326.83v-177H453.52a22.29,22.29,0,0,1,18.27,9.53L508,242.61a22.27,22.27,0,0,1,4,12.75Z" transform="translate(0 -93.27)"/><path class="cls-3" d="M508,242.61l-36.19-51.87a22.29,22.29,0,0,0-18.27-9.53h-46a22.29,22.29,0,0,1,18.27,9.53L462,242.61a22.34,22.34,0,0,1,4,12.75v73.8a8,8,0,0,1-8,8H326.83v21H512V255.36A22.27,22.27,0,0,0,508,242.61Z" transform="translate(0 -93.27)"/><path class="cls-4" d="M378.87,280.23V215.64a3.4,3.4,0,0,1,3.39-3.4h64.92A3.42,3.42,0,0,1,450,213.7l30.37,43.54a3.36,3.36,0,0,1,.61,1.94v21.05a3.39,3.39,0,0,1-3.39,3.39h-95.3A3.39,3.39,0,0,1,378.87,280.23Z" transform="translate(0 -93.27)"/><circle class="cls-5" cx="432.39" cy="280.87" r="44.59"/><path class="cls-6" d="M432.39,390.7A16.56,16.56,0,1,1,449,374.14,16.58,16.58,0,0,1,432.39,390.7Z" transform="translate(0 -93.27)"/><path class="cls-7" d="M352.89,358.18H6.76A6.76,6.76,0,0,1,0,351.42V100a6.76,6.76,0,0,1,6.76-6.76H346.13a6.76,6.76,0,0,1,6.76,6.76V358.18Z" transform="translate(0 -93.27)"/><path class="cls-8" d="M346.13,93.27H306.86V317.7a19.46,19.46,0,0,1-19.46,19.46H0v14.26a6.76,6.76,0,0,0,6.76,6.76H352.89V100A6.76,6.76,0,0,0,346.13,93.27Z" transform="translate(0 -93.27)"/><path class="cls-9" d="M166.83,220.37a6.08,6.08,0,0,1-4-1.48l-39.9-34.21L83,218.89a6.13,6.13,0,0,1-8-9.31l43.89-37.64a6.14,6.14,0,0,1,8,0l43.89,37.64a6.13,6.13,0,0,1-4,10.79Z" transform="translate(0 -93.27)"/><path class="cls-9" d="M157.31,225.61,125.46,198.3a3.88,3.88,0,0,0-5,0L88.57,225.61a3.88,3.88,0,0,0-1.36,2.94V267.7a3.88,3.88,0,0,0,3.88,3.87h21.12v-34a2.92,2.92,0,0,1,2.92-2.92h15.62a2.92,2.92,0,0,1,2.92,2.92v34h21.12a3.87,3.87,0,0,0,3.87-3.87V228.55A3.87,3.87,0,0,0,157.31,225.61Z" transform="translate(0 -93.27)"/><circle class="cls-5" cx="101.47" cy="374.14" r="44.59" transform="translate(-275.84 369.83) rotate(-88.09)"/><path class="cls-6" d="M101.47,390.7A16.56,16.56,0,1,1,118,374.14,16.58,16.58,0,0,1,101.47,390.7Z" transform="translate(0 -93.27)"/><path class="cls-9" d="M219.62,262.24l35.53-26.38a1.73,1.73,0,0,0,0-2.78L219.62,206.7a1.73,1.73,0,0,0-2.76,1.39v14H189.05a1.73,1.73,0,0,0-1.73,1.73v21.38a1.72,1.72,0,0,0,1.73,1.73h27.81v14A1.73,1.73,0,0,0,219.62,262.24Z" transform="translate(0 -93.27)"/></svg>