<svg id="Capa_1" data-name="Capa 1" xmlns="http://www.w3.org/2000/svg" viewBox="0 0 512 512"><defs><style>.cls-1{fill:#415a6b;}.cls-2{fill:#ce2929;}.cls-3{fill:#a02222;}.cls-4{fill:#f7f7f7;}.cls-5{fill:#bfc1c0;}.cls-6{fill:#ededed;}</style></defs><title>paint-roller</title><path class="cls-1" d="M496,58.67H444.8v32H480v92.8l-258.13,51.2c-7.47,1.06-12.8,8.53-12.8,16V304h32V263.47l258.13-51.2c7.47-1.07,12.8-8.54,12.8-16V74.67A16.4,16.4,0,0,0,496,58.67Z"/><path class="cls-2" d="M173.87,315.73V460.8a51.21,51.21,0,0,0,51.2,51.2h0a51.21,51.21,0,0,0,51.2-51.2V315.73Z"/><rect class="cls-3" x="173.87" y="311.47" width="102.4" height="30.93"/><path class="cls-2" d="M276.27,321.07H173.87a16,16,0,0,1,0-32h102.4a16,16,0,0,1,0,32Z"/><path class="cls-4" d="M435.2,149.33H25.6A26,26,0,0,1,0,123.73V25.6A26,26,0,0,1,25.6,0H435.2a26,26,0,0,1,25.6,25.6v98.13C459.73,137.6,449.07,149.33,435.2,149.33Z"/><path class="cls-5" d="M460.8,16.17V39.11c-76.8,0-76.8,35.56-153.6,35.56S230.4,39.11,153.6,39.11,76.8,74.67,0,74.67V16.17C0,7.24,11.49,0,25.66,0H435.14C449.31,0,460.8,7.24,460.8,16.17Z"/><path class="cls-6" d="M435.14,126.45H25.66C11.49,126.45,0,120.43,0,113v22.88c0,7.43,11.49,13.45,25.66,13.45H435.14c14.17,0,25.66-6,25.66-13.45V113C460.8,120.43,449.31,126.45,435.14,126.45Z"/></svg>