<svg id="Capa_1" data-name="Capa 1" xmlns="http://www.w3.org/2000/svg" viewBox="0 0 511.98 512"><defs><style>.cls-1{fill:#344a5e;}.cls-2{fill:#415a6b;}.cls-3{fill:#bfc1c0;}.cls-4{fill:#aaa;}.cls-5{fill:#f7f7f7;}.cls-6{fill:#ededed;}.cls-7{fill:#364b56;}.cls-8{fill:#8ad7f8;}.cls-9{fill:#fff;}</style></defs><title>pressure</title><path class="cls-1" d="M467,422H45.08c-59.4,0-59.4,90,0,90H467C526.4,512,526.4,422,467,422Z" transform="translate(0)"/><path class="cls-2" d="M467,512H302V422H467C526.4,422,526.4,512,467,512Z" transform="translate(0)"/><path class="cls-1" d="M135.08,392h-60a15,15,0,0,1-15-15V180c0-74.44,60.56-135,135-135H287a15,15,0,0,1,15,15v60a15,15,0,0,1-15,15H195.08a45.05,45.05,0,0,0-45,45V377A15,15,0,0,1,135.08,392Z" transform="translate(0)"/><path class="cls-3" d="M348.8,30c-9.68-.69-16.8,6.25-16.8,15v90a14.79,14.79,0,0,0,15,15h1.8L467,135.3V44.7Z" transform="translate(0)"/><path class="cls-4" d="M452,150V30c0-19.77,30-19.85,30,0V150C482,169.77,452,169.85,452,150Z" transform="translate(0)"/><path class="cls-5" d="M317,0H287a14.85,14.85,0,0,0-15,15V165a14.85,14.85,0,0,0,15,15h30a44.94,44.94,0,0,0,45-45V45A44.94,44.94,0,0,0,317,0Z" transform="translate(0)"/><path class="cls-6" d="M317,180H302V0h15a44.94,44.94,0,0,1,45,45v90A44.94,44.94,0,0,1,317,180Z" transform="translate(0)"/><path class="cls-2" d="M467,362H45.08c-39.9,0-59.4,48-33,75.3H500.3C526.1,409.1,506.6,362,467,362Z" transform="translate(0)"/><path class="cls-7" d="M500.3,437.3H302V362H467C506.6,362,526.1,409.1,500.3,437.3Z" transform="translate(0)"/><path class="cls-8" d="M504.93,229.69a26.47,26.47,0,1,1-52.93,0c0-14.61,26.45-48.85,26.45-48.85s26.48,34.24,26.48,48.85" transform="translate(0)"/><path class="cls-9" d="M478.44,247.73a18,18,0,0,1-18-18,2.82,2.82,0,1,1,5.63,0,12.4,12.4,0,0,0,12.39,12.39,2.82,2.82,0,1,1,0,5.63" transform="translate(0)"/></svg>