<svg id="Capa_1" data-name="Capa 1" xmlns="http://www.w3.org/2000/svg" viewBox="0 0 512 512"><defs><style>.cls-1{fill:#bfc1c0;}.cls-2{fill:#aaa;}.cls-3{fill:#ce2929;}.cls-4{fill:#fff;}.cls-5{fill:#415a6b;}</style></defs><title>rental</title><path class="cls-1" d="M290.13,482.13v-448a34.13,34.13,0,0,0-68.26,0V481.07h68.26Z"/><path class="cls-2" d="M365.87,512C345.6,472.53,304,445.87,256,445.87S167.47,472.53,146.13,512Z"/><path class="cls-3" d="M469.33,346.67H42.67A42.79,42.79,0,0,1,0,304V92.8A42.79,42.79,0,0,1,42.67,50.13H469.33A42.79,42.79,0,0,1,512,92.8V304A42.79,42.79,0,0,1,469.33,346.67Z"/><rect class="cls-4" x="42.67" y="92.8" width="426.67" height="211.2"/><path class="cls-5" d="M151.47,182.4c0,14.93-6.4,24.53-18.14,28.8l23.47,34.13H131.2l-21.33-29.86H96v29.86H74.67V151.47h35.2c14.93,0,24.53,2.13,30.93,7.46C148.27,163.2,151.47,171.73,151.47,182.4Zm-25.6,10.67a16.33,16.33,0,0,0,4.26-10.67c0-5.33-1.06-8.53-4.26-10.67s-7.47-3.2-13.87-3.2H96v27.74h14.93C118.4,197.33,123.73,196.27,125.87,193.07Z"/><path class="cls-5" d="M240,151.47v19.2H193.07v19.2h41.6V208h-41.6v19.2h48v18.13H171.73V151.47Z"/><path class="cls-5" d="M326.4,151.47h21.33v93.86H326.4l-44.8-58.66v58.66H260.27V151.47h19.2l45.86,60.8v-60.8Z"/><path class="cls-5" d="M410.67,169.6v75.73H389.33V169.6H362.67V151.47h74.66V169.6Z"/></svg>