<svg id="Capa_1" data-name="Capa 1" xmlns="http://www.w3.org/2000/svg" viewBox="0 0 183.47 502.15"><defs><style>.cls-1{fill:#425a6b;}.cls-2{fill:#ce2929;}.cls-3{fill:#ffd15c;}.cls-4{fill:#e8eae8;}.cls-5{fill:#8ad6f7;}.cls-6{fill:#56bfeb;}.cls-7{fill:#f5b54c;}</style></defs><title>residential</title><path class="cls-1" d="M348.8,502.82s-11.49-13.58-10.45-17.76L300.75,483l-42.82,2.09s-10.45,15.67-13.58,17.76C243.3,508,348.8,508,348.8,502.82Z" transform="translate(-165.33 -4.58)"/><rect class="cls-2" x="290.38" y="137.08" width="6.27" height="337.39" transform="translate(-171.96 1.92) rotate(-1.26)"/><path class="cls-3" d="M186.9,431.79c0-2.09,2.09-7.31,0-11.49-1-4.18-9.4-32.38-10.45-39.69s0-19.85,0-19.85l42.83,8.36s-8.36,40.73-9.4,56.4,6.27,21.94,6.27,21.94a49,49,0,0,1,5.22,6.26c2.09,3.14,1,9.4,1,9.4v1.05c-19.84,6.27-37.6-17.76-37.6-17.76A61.88,61.88,0,0,1,186.9,431.79Z" transform="translate(-165.33 -4.58)"/><path d="M184.81,445.37l-3.13,1S185.86,460,185.86,461a31.21,31.21,0,0,0,6.26,3.13c3.14,1,5.23,3.13,8.36,5.22,4.18,2.09,18.8,8.36,27.16,4.18s3.13-10.45,3.13-10.45C231.81,466.26,192.12,462.08,184.81,445.37Z" transform="translate(-165.33 -4.58)"/><path d="M221.37,427.61h0l3.13,15.67s11.49,2.09,13.58,4.18c3.13,2.09,5.22,6.26,12.54,7.31s17.75,3.13,16.71-6.27l-24-6.27-10.44-11.49" transform="translate(-165.33 -4.58)"/><path class="cls-3" d="M227.64,424.48l3.13,4.18a27.74,27.74,0,0,0,23,11.49H260L257.93,437s-9.4-8.35-10.45-14.62c-2.09-6.27-2.09-7.31-2.09-10.45,1.05-4.17,9.4-40.73,8.36-50.13s-3.13-9.4-3.13-9.4l-27.16,9.4-4.18,6.26s2.09,25.07,3.13,30.29,2.09,16.72,2.09,16.72Z" transform="translate(-165.33 -4.58)"/><path class="cls-1" d="M225.55,416.12a97.15,97.15,0,0,0,7.31,13.58c5.22,5.22,12.53,11.49,17.76,10.45s6.26-2.09,5.22-3.14l10.44,10.45c1.05,3.13,0,5.22-4.17,6.26-4.18,0-12.54,0-18.81-5.22S237,440.15,232.86,437s-11.49-7.31-11.49-7.31S219.28,420.3,225.55,416.12Z" transform="translate(-165.33 -4.58)"/><path class="cls-1" d="M181.68,447.46s7.31,6.26,9.4,9.4,7.31,10.44,15.67,12.53,20.89,5.22,25.06,0c0,0,2.09-2.09-1-5.22-3.13-2.09-10.45-10.45-10.45-10.45a3.23,3.23,0,0,1-2.08,4.18C215.1,460,207.79,461,202.57,459S189,446.41,187.94,444.32s-2.08-8.35-1-12.53C186.9,431.79,180.63,437,181.68,447.46Z" transform="translate(-165.33 -4.58)"/><path class="cls-1" d="M171.23,314.8s-2.09,41.78-2.09,44.92,4.18,7.31,17.76,10.44,56.4,4.18,70-2.09c12.54-6.26,13.58-7.31,13.58-7.31v-56.4Z" transform="translate(-165.33 -4.58)"/><path class="cls-1" d="M244.35,22.34s8.35,24,8.35,28.2v7.31l-9.4,21.94L236,87.1s-9.4-10.45-9.4-12.54S221.37,84,220.32,84c0,0-24-8.36-24-12.54s30.29-41.78,30.29-41.78Z" transform="translate(-165.33 -4.58)"/><path class="cls-3" d="M245.39,59.94c-2.09,5.22-3.13,11.49-8.35,15.67,0,0-2.09,9.4,0,14.62s4.17,9.4,4.17,9.4H221.37L210.92,87.1s5.23-9.4,3.14-13.58-9.4-14.62-8.36-29.25c2.09-13.57,7.31-19.84,8.36-19.84S224.5,14,227.64,15c4.17,0,16.71,6.26,16.71,6.26h-1s4.18,14.63,3.14,19.85S247.48,54.72,245.39,59.94Z" transform="translate(-165.33 -4.58)"/><path class="cls-1" d="M245.39,20.25h0c1.05,1,2.09,2.09,2.09,3.13a3.84,3.84,0,0,1,1.05,3.14V30.7c0,1,0,3.13,1,4.17,0,1.05,1.05,2.09,2.09,3.14l2.09,2.09h0c-1.05,0-1.05-1.05-2.09-2.09s-1-2.09-2.09-3.14c0-1-1-3.13-1-4.17V26.52c0-1.05-1.05-2.09-1.05-3.14l-2.09-2.09h-1Z" transform="translate(-165.33 -4.58)"/><path class="cls-4" d="M236,88.14s3.14,9.4-1,7.32c-5.22-1-26.12-17.76-26.12-17.76l11.49,23,40.74,18.8s2.09-9.4,1.05-10.45C261.06,109,236,88.14,236,88.14Z" transform="translate(-165.33 -4.58)"/><path class="cls-5" d="M236,88.14s11.49,16.72,13.58,18.8c0,0-13.58-7.31-18.8-10.44-4.18-3.13-23-17.76-27.16-19.85,0,0-15.67,7.32-21.93,16.72s-6.27,24-8.36,30.29-5.22,9.4-2.09,16.71,8.36,29.25,8.36,34.47-7.31,12.53-9.4,20.89c-3.14,8.35-6.27,33.42-4.18,57.45S168.1,319,168.1,319s15.67,5.22,31.33-2.09,37.61-2.09,44.92-3.13c7.31,0,24-3.13,26.11-8.36s3.13-56.4,3.13-65.8c1.05-8.36,4.18-37.6,4.18-43.87s2.09-14.62,3.14-19.85c1-4.18,7.31-31.33-4.18-47s-35.52-42.83-35.52-42.83Z" transform="translate(-165.33 -4.58)"/><path class="cls-1" d="M208.83,171.7s-10.44,2.09-8.35,3.14c2.09,2.09,14.62,3.13,14.62,3.13l-6.27-6.27" transform="translate(-165.33 -4.58)"/><path class="cls-1" d="M237,76.65h0c-2.09,4.18-3.14,9.4-1,13.58,3.14,3.14,6.27,5.23,8.36,2.09,2.09-2.09,6.27,1.05,8.35-1,1.05-1,1.05-3.14,0-5.23a14.25,14.25,0,0,0-3.13-4.17,4.59,4.59,0,0,0,5.22-1c1.05-1,1.05-3.13,1.05-4.18Z" transform="translate(-165.33 -4.58)"/><path class="cls-1" d="M249.57,88.14h0v2.09a1,1,0,0,1-1,1c-1.05,1-1.05,1-2.09,1h-1.05c-1,1.05-1,1.05-1,2.09s1,1,1,2.09l1.05,1h0a3.23,3.23,0,0,1-2.09-1c-1,0-1-1-1-2.09a3.82,3.82,0,0,1,1-3.13v-1h1a1,1,0,0,0,1.05-1h2.09v-1h1Z" transform="translate(-165.33 -4.58)"/><path class="cls-1" d="M238.08,76.65h0c0,1-1,1-1,2.09s-1,2.09-1,3.14S235,84,235,85v4.18a3.84,3.84,0,0,0,1,3.13c0,1.05,1,1.05,1,2.09h0a3.62,3.62,0,0,1-1-2.09c0-1-1-2.09-1-3.13V86.05a3.85,3.85,0,0,1,1-3.13c0-1,1-2.09,1-3.13s1-1.05,1-2.09h0Z" transform="translate(-165.33 -4.58)"/><path class="cls-1" d="M251.66,64.12c-1,2.09-3.13,4.18-2.09,6.27s3.13,3.13,4.18,4.17c1,2.09,1,4.18,0,5.23a4.59,4.59,0,0,1-5.22,1c1,1,3.13,2.09,3.13,4.18,1,2.09,1,4.18,0,5.22-2.09,2.09-5.22,2.09-8.36,1s-5.22-1-8.35-2.09c-2.09-4.18-1-9.4,1-13.58s5.22-7.31,8.36-11.49c5.22-9.4,4.18-20.89,2.09-30.29a25,25,0,0,0-6.27-11.49c-3.13-3.13-8.36-3.13-12.53,0a9.49,9.49,0,0,1-1,11.49C222.41,38,216.15,38,212,41.14a14.88,14.88,0,0,0-6.27,12.53c0,5.23,1.05,9.41,2.09,14.63,1,3.13,1,5.22,2.09,8.35s1,5.23,2.09,8.36a23.09,23.09,0,0,1,1,8.36A15,15,0,0,0,201.52,84c-5.22-1-10.44,1-14.62,4.17-2.09,1-5.22,9.4-7.31,13.58,1-6.26,1-15.67,2.09-21.93,0-2.09,1-4.18,0-7.31V68.3c0-4.18,4.18-7.31,6.26-11.49,3.14-6.27,1.05-14.63,3.14-21.94,1-4.17,3.13-7.31,6.27-11.49,4.17-5.22,8.35-10.44,14.62-14.62a22.85,22.85,0,0,1,19.84-3.13c6.27,2.09,11.49,8.35,15.67,13.58,2.09,3.13,6.27,8.35,6.27,8.35l-6.27-6.27c0,5.23,0,8.36,1.05,12.54,1,3.13,1,6.27,3.13,9.4,1,2.09,3.13,4.18,4.18,7.31,1,2.09,2.09,5.22,1,8.36C255.84,61,253.75,62,251.66,64.12Z" transform="translate(-165.33 -4.58)"/><path class="cls-1" d="M220.32,32.78h0v1a3.84,3.84,0,0,1-1,3.13c0,1-1,1-1,2.09s-1.05,1.05-2.09,1.05A14.68,14.68,0,0,1,212,43.23c-1.05,1-1.05,1-1.05,2.09s-1,1-1,2.09-1,3.13-1,4.18v4.17h0V47.41c0-1,1-1,1-2.09s1-1,1-2.09l3.14-3.13a1,1,0,0,0,1-1.05l1.05-1a3.25,3.25,0,0,0,1-2.09h0Z" transform="translate(-165.33 -4.58)"/><path class="cls-1" d="M255.84,56.81h0v3.13c0,1.05-1.05,2.09-1.05,3.14-1,1-1,2.08-2.09,3.13v1h0v2.09c0,1,1.05,2.09,1.05,3.14l1,1,1.05,1h-1.05a1,1,0,0,1-1-1,3.82,3.82,0,0,1-1.05-3.13V68.3h0v-1c0-1,1.05-2.09,1.05-3.13a3.84,3.84,0,0,0,1-3.13V58.9h0Z" transform="translate(-165.33 -4.58)"/><path class="cls-1" d="M249.57,78.74h0c1.05,1.05,1.05,2.09,2.09,2.09,1,1,2.09,3.14,3.13,6.27v3.13a3.86,3.86,0,0,1-1,3.14v1h0a1,1,0,0,1-1.05,1h0l1.05-1h0v-1c0-1.05,1-2.09,1-3.14a3.84,3.84,0,0,0-1-3.13,23.05,23.05,0,0,0-3.13-5.22c-1.05-1-1.05-1-1.05-2.09l-1-1.05Z" transform="translate(-165.33 -4.58)"/><path class="cls-1" d="M208.83,64.12c1,5.22,3.14,9.4,7.32,11.49l6.26,3.13q3.14,1.58,3.14,6.27a12.59,12.59,0,0,0-5.23-5.22,7.86,7.86,0,0,0-4.17-2.09c2.09,2.09,4.17,3.13,5.22,5.22-1.05,0-2.09-1-3.13-1-2.09-1-4.18-1-6.27-3.14-4.18-3.13-7.31-8.35-9.4-12.53" transform="translate(-165.33 -4.58)"/><path class="cls-1" d="M209.88,74.56c2.09,3.14,5.22,5.23,7.31,7.32,3.13,4.17,3.13,8.35,4.18,13.58A19.86,19.86,0,0,0,214.06,84a19.31,19.31,0,0,0-7.31-2.09" transform="translate(-165.33 -4.58)"/><path class="cls-6" d="M233.9,117.39a101.66,101.66,0,0,1,6.27,35.51c-2.09-5.22-4.18-9.4-6.27-14.62,0-1-1-2.09-1-3.13-2.09-6.27-5.22-12.54-7.31-18.8,4.18,5.22,7.31,9.4,11.49,14.62A65,65,0,0,0,212,90.23C221.37,95.46,229.73,105.9,233.9,117.39Z" transform="translate(-165.33 -4.58)"/><path class="cls-6" d="M240.17,151.86Z" transform="translate(-165.33 -4.58)"/><path class="cls-6" d="M252.7,158.13c-2.08,2.09-5.22,3.13-7.31,5.22-2.09-4.18-3.13-7.31-5.22-11.49,4.18-4.18,7.31-9.4,11.49-13.58-3.13,6.27-5.22,12.53-8.36,18.8a23.76,23.76,0,0,0,12.54-6.27A6.39,6.39,0,0,1,252.7,158.13Z" transform="translate(-165.33 -4.58)"/><path class="cls-3" d="M297.62,248v8.36c0,2.09-4.18,3.13-4.18,0l-2.09-16.71,1,15.67c0,2.09-3.14,3.13-4.18,0l-1.05-3.14a19.7,19.7,0,0,1-4.17-6.26c-1.05-3.14-5.23-8.36-6.27-9.41-2.09-1-5.22-4.17-7.31-7.31-1.05-4.17,0-4.17-2.09-5.22-2.09-2.09-24-21.93-28.2-24-3.14-2.09-30.3-26.12-31.34-28.21,0,0,19.85-5.22,36.56-7.31,0,0,8.35,10.45,13.58,17.76s6.26,13.58,11.49,19.85a88.21,88.21,0,0,1,9.4,14.62,66.46,66.46,0,0,0,9.4,6.27c4.18,2.09,9.4,10.44,9.4,12.53C299.71,237.51,300.75,241.69,297.62,248Z" transform="translate(-165.33 -4.58)"/><path class="cls-7" d="M296.57,238.55Z" transform="translate(-165.33 -4.58)"/><path class="cls-7" d="M296.57,238.55Z" transform="translate(-165.33 -4.58)"/><path class="cls-7" d="M297.62,239.6a56.42,56.42,0,0,0,1,8.35v-1C297.62,244.82,297.62,241.69,297.62,239.6Z" transform="translate(-165.33 -4.58)"/><path class="cls-7" d="M286.13,242.73h0l-1.05-4.18,1.05,4.18,1,9.4h0l-1-9.4Z" transform="translate(-165.33 -4.58)"/><path class="cls-6" d="M179.59,144.55a1,1,0,0,1,1,1c2.09,2.09,4.18,3.14,5.23,5.22a52,52,0,0,1,3.13,7.32c1,3.13,9.4,17.75,10.44,18.8-6.26-11.49-9.4-24-10.44-37.61,0-1,0-3.13-1.05-4.17-1-2.09-1-1.05-1,1a13.31,13.31,0,0,1,1,6.27L190,156l-10.44-27.16c1,7.31,3.13,14.62,7.31,20.89-1-2.09-3.13-3.13-5.22-4.18-1.05-1-1.05-1-2.09-1C176.45,142.46,176.45,143.5,179.59,144.55Z" transform="translate(-165.33 -4.58)"/><path class="cls-4" d="M338.35,485.06H256.88a8,8,0,0,1,2.09-4.18c1-1,2.09-1,4.18-2.09l19.85-1s6.26-1.05,7.31-3.14c1-3.13,3.13-3.13,6.26-3.13h3.14c1,0,4.18,0,5.22,3.13,2.09,3.14,6.27,4.18,10.45,4.18h16.71q4.7,0,6.26,6.27Z" transform="translate(-165.33 -4.58)"/><path class="cls-1" d="M289.26,128.88a2.24,2.24,0,0,1,2.09,2.09v19.84h-3.13V131a3.63,3.63,0,0,1,1-2.09h0m0-1h0q-3.13,0-3.13,3.13v20.89h6.27V129.92c0-1-1-2.08-3.14-2.08Z" transform="translate(-165.33 -4.58)"/><polygon class="cls-1" points="121.84 131.61 127.06 131.61 127.06 146.23 121.84 146.23 121.84 131.61"/></svg>