
<!-- Generator: Adobe Illustrator 19.0.0, SVG Export Plug-In . SVG Version: 6.00 Build 0)  -->
<svg version="1.1" id="Capa_1" xmlns="http://www.w3.org/2000/svg" xmlns:xlink="http://www.w3.org/1999/xlink" x="0px" y="0px"
	 viewBox="0 0 512 512" style="enable-background:new 0 0 512 512;" xml:space="preserve">
<path style="fill:#965B33;" d="M502.011,100.375C499.3,76.352,485.178,55.219,464.8,42.196
	c-27.301-17.455-75.145-32.256-122.757,28.989l-11.338,11.567c-23.444-9.113-48.936-14.122-75.602-14.122
	c-26.652,0-52.131,5.004-75.565,14.108c0.174-0.068,0.346-0.141,0.52-0.208l-12.1-12.344C120.346,8.942,72.501,23.741,45.2,41.197
	C24.823,54.22,10.701,75.353,7.989,99.375c-5.433,48.045,35.734,78.723,34.878,80.523l18.578,19.422
	c0.151-0.374,0.313-0.742,0.466-1.114c-10.016,24.416-15.552,51.143-15.552,79.168c0,115.286,93.457,208.743,208.743,208.743
	s208.743-93.457,208.743-208.743c0-27.385-5.282-53.533-14.869-77.495l18.155-18.98C466.277,179.099,507.444,148.42,502.011,100.375
	z"/>
<path style="fill:#7F4620;" d="M439.866,374.553c-34.95,66.344-104.583,111.562-184.77,111.562
	c-115.289,0-208.729-93.459-208.729-208.748c0-74.653,39.19-140.142,98.118-177.031c-15.326,29.017-23.978,62.085-23.978,97.167
	c0,115.288,93.459,208.748,208.748,208.748C369.872,406.251,407.788,394.651,439.866,374.553z"/>
<circle style="fill:#C9925B;" cx="255.107" cy="374.449" r="111.673"/>
<path style="fill:#BF834C;" d="M355.627,423.146c-18.092,37.272-56.297,62.972-100.525,62.972
	c-61.681,0-111.674-49.993-111.674-111.674c0-42.054,23.246-78.686,57.588-97.724c-7.16,14.716-11.162,31.25-11.162,48.715
	c0,61.681,49.994,111.674,111.674,111.674C321.156,437.11,339.607,432.045,355.627,423.146z"/>
<circle style="fill:#38444C;" cx="255.107" cy="305.167" r="42.391"/>
<path style="fill:#2D393F;" d="M291.208,327.395c-7.466,12.099-20.841,20.163-36.102,20.163c-23.417,0-42.397-18.98-42.397-42.392
	c0-16.3,9.2-30.457,22.701-37.546c-3.993,6.46-6.29,14.079-6.29,22.23c0,23.412,18.98,42.392,42.397,42.392
	C278.621,332.241,285.323,330.491,291.208,327.395z"/>
<g>
	<path style="fill:#EFC7B0;" d="M145.391,99.753c-27.789,17.2-51.234,40.734-68.323,68.59l-0.111-0.111
		c0.5-1.022-23.678-18.544-20.49-45.967c1.589-13.722,9.889-25.778,21.856-33.212C93.391,79.686,119.135,71.653,145.391,99.753z"/>
	<path style="fill:#EFC7B0;" d="M365.777,100.753c27.789,17.2,51.234,40.734,68.323,68.59l0.111-0.111
		c-0.5-1.022,23.678-18.544,20.49-45.967c-1.589-13.722-9.889-25.778-21.856-33.212C417.777,80.686,392.032,72.653,365.777,100.753z
		"/>
</g>
<path d="M511.46,98.535c-2.914-25.817-17.719-49.017-40.622-63.654c-27.107-17.332-80.32-36.393-132.447,30.362l-8.829,9.006
	c-23.537-8.612-48.65-13.116-74.459-13.116c-25.328,0-49.989,4.327-73.144,12.627l-8.349-8.518
	c-15.952-20.428-33.334-34.348-51.667-41.378c-3.866-1.482-8.201,0.45-9.684,4.315c-1.482,3.866,0.45,8.201,4.315,9.684
	c15.846,6.076,31.143,18.499,45.466,36.924c0.176,0.226,0.365,0.441,0.565,0.646l4.298,4.385c-6.964,3.112-13.76,6.608-20.373,10.46
	c-29.113-27.343-57.458-16.736-72.162-7.594c-14.287,8.875-23.526,22.987-25.347,38.713c-2.73,23.475,11.578,40.44,18.711,47.875
	c-3.148,5.436-6.054,10.997-8.705,16.672l-10.017-10.471c-1.007-1.541-2.437-3.024-3.95-4.593
	c-9.207-9.547-33.666-34.909-29.622-70.666c2.404-21.303,14.723-40.511,33.8-52.702c6.508-4.161,13.162-7.456,19.779-9.793
	c3.904-1.379,5.95-5.662,4.57-9.566c-1.379-3.905-5.664-5.952-9.566-4.57c-7.695,2.719-15.385,6.52-22.858,11.297
	C18.261,49.517,3.453,72.717,0.539,98.533c-4.836,42.767,24.19,72.866,33.729,82.756c0.691,0.716,1.449,1.502,1.922,2.019
	c0.326,0.638,0.747,1.237,1.259,1.773l15.236,15.929c-9.074,24.084-13.824,49.858-13.824,76.365
	c0,57.759,22.493,112.063,63.336,152.905c40.842,40.842,95.144,63.336,152.905,63.336c57.759,0,112.062-22.494,152.904-63.336
	c40.843-40.842,63.336-95.145,63.336-152.905c0-26.012-4.576-51.317-13.321-75.014l16.529-17.28
	c0.512-0.536,0.933-1.134,1.259-1.773c0.473-0.516,1.232-1.302,1.922-2.018C487.271,171.399,516.296,141.301,511.46,98.535z
	 M35.536,178.329c0.058-0.271,0.133-0.546,0.226-0.823C35.671,177.778,35.595,178.052,35.536,178.329z M442.449,166.311
	c-0.052-0.195-0.104-0.39-0.172-0.582c0.07,0.197,0.122,0.391,0.174,0.586C442.451,166.313,442.449,166.312,442.449,166.311z
	 M436.142,156.142c-15.284-22.516-34.86-42.149-57.337-57.504c15.941-13.309,33.089-14.403,51.083-3.216
	c10.378,6.446,17.071,16.544,18.364,27.708C449.958,137.791,442.113,149.324,436.142,156.142z M63.915,123.126
	c1.292-11.159,7.985-21.258,18.366-27.706c8.205-5.1,16.232-7.648,24.053-7.648c9.318,0,18.341,3.621,27.005,10.848
	c-11.043,7.556-21.473,16.181-31.14,25.85c-9.815,9.815-18.558,20.416-26.197,31.647C70.034,149.294,62.212,137.771,63.915,123.126z
	 M336.485,461.413c23.24-21.761,37.789-52.695,37.789-86.968c0-8.316-0.863-16.625-2.564-24.7c-0.854-4.051-4.834-6.641-8.882-5.789
	c-4.051,0.854-6.644,4.831-5.789,8.882c1.488,7.058,2.242,14.328,2.242,21.608c0,57.443-46.733,104.177-104.177,104.177
	s-104.177-46.733-104.177-104.177c0-42.226,25.253-78.663,61.449-95.005c-4.542,7.516-7.161,16.319-7.161,25.725
	c0,24.962,18.427,45.698,42.393,49.325v32.917c-5.064-1.838-9.353-5.511-11.943-10.469c-1.916-3.67-6.445-5.092-10.116-3.174
	c-3.67,1.916-5.091,6.445-3.174,10.115c6.391,12.237,18.932,19.84,32.73,19.84s26.338-7.601,32.729-19.839
	c1.917-3.669,0.496-8.198-3.174-10.115c-3.667-1.917-8.198-0.497-10.115,3.174c-2.589,4.957-6.878,8.63-11.941,10.467V354.49
	c23.966-3.627,42.393-24.364,42.393-49.325c0-9.441-2.637-18.277-7.211-25.813c15.041,6.747,28.437,17.086,39.033,30.465
	c2.571,3.248,7.287,3.795,10.53,1.222c3.246-2.57,3.793-7.286,1.222-10.531c-22.768-28.746-56.834-45.232-93.463-45.233h-0.001l0,0
	h-0.001c-65.711,0-119.17,53.459-119.17,119.17c0,34.273,14.549,65.208,37.789,86.968
	c-70.541-31.315-119.867-102.02-119.867-184.039c0-110.968,90.279-201.247,201.247-201.247s201.246,90.279,201.246,201.247
	C456.349,359.393,407.024,430.098,336.485,461.413z M255.105,270.268C274.346,270.269,290,285.923,290,305.164
	s-15.654,34.897-34.897,34.897s-34.897-15.654-34.897-34.897s15.654-34.895,34.896-34.896H255.105z M476.237,177.505
	c0.093,0.276,0.169,0.551,0.226,0.822C476.404,178.05,476.328,177.776,476.237,177.505z M466.939,170.881
	c-1.513,1.569-2.942,3.051-3.948,4.593l-10.06,10.516c-2.643-5.66-5.532-11.183-8.641-16.565
	c7.082-7.355,21.605-24.393,18.857-48.023c-1.822-15.729-11.061-29.841-25.345-38.714c-14.725-9.154-43.125-19.775-72.276,7.697
	c-6.614-3.854-13.444-7.373-20.475-10.517l4.346-4.433c0.2-0.204,0.389-0.421,0.564-0.646
	c42.66-54.877,84.887-45.121,112.801-27.275c19.076,12.191,31.395,31.401,33.799,52.704
	C500.605,135.973,476.146,161.334,466.939,170.881z"/>
<circle cx="168.225" cy="235.135" r="25.241"/>
<circle cx="343.769" cy="235.135" r="25.241"/>
<g>
</g>
<g>
</g>
<g>
</g>
<g>
</g>
<g>
</g>
<g>
</g>
<g>
</g>
<g>
</g>
<g>
</g>
<g>
</g>
<g>
</g>
<g>
</g>
<g>
</g>
<g>
</g>
<g>
</g>
</svg>
